<svg width="32" height="45" viewBox="0 0 32 45" fill="none" xmlns="http://www.w3.org/2000/svg">
<path d="M22.4865 13.4425C22.4865 15.4743 21.8497 17.0673 20.766 18.151C19.6823 19.2346 18.0894 19.8715 16.0575 19.8715C14.0257 19.8715 12.4327 19.2346 11.349 18.151C10.2654 17.0673 9.62852 15.4743 9.62852 13.4425C9.62852 11.3056 10.8084 8.70401 12.2593 6.34055C13.6747 4.03484 15.2798 2.06267 16.0578 1.15034C16.8356 2.06275 18.4405 4.03489 19.8558 6.34054C21.3066 8.70401 22.4865 11.3056 22.4865 13.4425Z" stroke="#F5F5F5" stroke-opacity="0.5" stroke-width="1.25704" stroke-miterlimit="10"/>
<path d="M20.0065 14.0652C20.0065 15.0018 19.6344 15.9 18.9721 16.5622C18.3099 17.2245 17.4117 17.5965 16.4751 17.5965" stroke="#F5F5F5" stroke-opacity="0.5" stroke-width="1.25704" stroke-linecap="round" stroke-linejoin="round"/>
<path d="M1.13748 41.5V33.1H3.69348C4.48548 33.1 5.18148 33.28 5.78148 33.64C6.38948 33.992 6.86548 34.484 7.20948 35.116C7.55348 35.748 7.72548 36.476 7.72548 37.3C7.72548 38.116 7.55348 38.84 7.20948 39.472C6.86548 40.104 6.38948 40.6 5.78148 40.96C5.18148 41.32 4.48548 41.5 3.69348 41.5H1.13748ZM2.15748 40.564H3.69348C4.11748 40.564 4.50948 40.484 4.86948 40.324C5.22948 40.156 5.54548 39.92 5.81748 39.616C6.09748 39.312 6.31348 38.964 6.46548 38.572C6.62548 38.172 6.70548 37.748 6.70548 37.3C6.70548 36.852 6.62548 36.432 6.46548 36.04C6.31348 35.64 6.09748 35.288 5.81748 34.984C5.54548 34.68 5.22948 34.448 4.86948 34.288C4.50948 34.12 4.11748 34.036 3.69348 34.036H2.15748V40.564ZM9.6512 38.248C9.6512 37.6 9.7752 37.076 10.0232 36.676C10.2712 36.268 10.5872 35.968 10.9712 35.776C11.3632 35.576 11.7752 35.476 12.2072 35.476V36.376C11.8552 36.376 11.5152 36.436 11.1872 36.556C10.8672 36.668 10.6032 36.856 10.3952 37.12C10.1872 37.384 10.0832 37.744 10.0832 38.2L9.6512 38.248ZM9.1232 41.5V35.5H10.0832V41.5H9.1232ZM15.8299 41.644C15.2459 41.644 14.7259 41.512 14.2699 41.248C13.8219 40.976 13.4699 40.604 13.2139 40.132C12.9579 39.66 12.8299 39.116 12.8299 38.5C12.8299 37.884 12.9539 37.34 13.2019 36.868C13.4579 36.396 13.8099 36.028 14.2579 35.764C14.7139 35.492 15.2299 35.356 15.8059 35.356C16.3979 35.356 16.9179 35.492 17.3659 35.764C17.8219 36.028 18.1739 36.396 18.4219 36.868C18.6779 37.34 18.8059 37.884 18.8059 38.5C18.8059 39.116 18.6779 39.66 18.4219 40.132C18.1739 40.604 17.8259 40.976 17.3779 41.248C16.9299 41.512 16.4139 41.644 15.8299 41.644ZM15.8299 40.756C16.2299 40.756 16.5779 40.66 16.8739 40.468C17.1699 40.276 17.4019 40.012 17.5699 39.676C17.7459 39.34 17.8339 38.948 17.8339 38.5C17.8339 38.052 17.7459 37.66 17.5699 37.324C17.4019 36.988 17.1659 36.724 16.8619 36.532C16.5579 36.34 16.2059 36.244 15.8059 36.244C15.4139 36.244 15.0659 36.34 14.7619 36.532C14.4659 36.724 14.2299 36.988 14.0539 37.324C13.8859 37.66 13.8019 38.052 13.8019 38.5C13.8019 38.94 13.8859 39.332 14.0539 39.676C14.2299 40.012 14.4699 40.276 14.7739 40.468C15.0859 40.66 15.4379 40.756 15.8299 40.756ZM20.1988 43.9V35.5H21.0988L21.1588 36.604V43.9H20.1988ZM23.1868 41.644C22.6828 41.644 22.2388 41.512 21.8548 41.248C21.4788 40.984 21.1868 40.616 20.9788 40.144C20.7708 39.664 20.6668 39.116 20.6668 38.5C20.6668 37.876 20.7708 37.328 20.9788 36.856C21.1868 36.384 21.4788 36.016 21.8548 35.752C22.2388 35.488 22.6828 35.356 23.1868 35.356C23.7228 35.356 24.1948 35.488 24.6028 35.752C25.0108 36.016 25.3268 36.384 25.5508 36.856C25.7828 37.328 25.8988 37.876 25.8988 38.5C25.8988 39.116 25.7828 39.664 25.5508 40.144C25.3268 40.616 25.0108 40.984 24.6028 41.248C24.1948 41.512 23.7228 41.644 23.1868 41.644ZM22.9708 40.768C23.3468 40.768 23.6788 40.672 23.9668 40.48C24.2628 40.288 24.4948 40.02 24.6628 39.676C24.8388 39.332 24.9268 38.94 24.9268 38.5C24.9268 38.06 24.8428 37.668 24.6748 37.324C24.5148 36.98 24.2868 36.712 23.9908 36.52C23.6948 36.328 23.3588 36.232 22.9828 36.232C22.6308 36.232 22.3148 36.328 22.0348 36.52C21.7628 36.712 21.5468 36.98 21.3868 37.324C21.2348 37.668 21.1588 38.06 21.1588 38.5C21.1588 38.94 21.2348 39.332 21.3868 39.676C21.5468 40.02 21.7628 40.288 22.0348 40.48C22.3068 40.672 22.6188 40.768 22.9708 40.768ZM29.3287 41.644C28.8887 41.644 28.5047 41.58 28.1767 41.452C27.8487 41.316 27.5727 41.14 27.3487 40.924C27.1327 40.708 26.9767 40.472 26.8807 40.216L27.7207 39.868C27.8567 40.14 28.0607 40.36 28.3327 40.528C28.6047 40.696 28.9047 40.78 29.2327 40.78C29.6087 40.78 29.9247 40.708 30.1807 40.564C30.4367 40.412 30.5647 40.2 30.5647 39.928C30.5647 39.68 30.4687 39.48 30.2767 39.328C30.0927 39.176 29.8167 39.052 29.4487 38.956L28.8727 38.8C28.3287 38.656 27.9047 38.44 27.6007 38.152C27.2967 37.856 27.1447 37.524 27.1447 37.156C27.1447 36.588 27.3287 36.148 27.6967 35.836C28.0727 35.516 28.6287 35.356 29.3647 35.356C29.7167 35.356 30.0367 35.408 30.3247 35.512C30.6127 35.616 30.8607 35.764 31.0687 35.956C31.2767 36.14 31.4287 36.36 31.5247 36.616L30.6847 36.988C30.5807 36.716 30.4087 36.52 30.1687 36.4C29.9287 36.28 29.6367 36.22 29.2927 36.22C28.9247 36.22 28.6367 36.3 28.4287 36.46C28.2207 36.612 28.1167 36.828 28.1167 37.108C28.1167 37.268 28.2007 37.42 28.3687 37.564C28.5447 37.7 28.8007 37.812 29.1367 37.9L29.7367 38.056C30.1287 38.152 30.4567 38.296 30.7207 38.488C30.9847 38.672 31.1847 38.884 31.3207 39.124C31.4567 39.364 31.5247 39.62 31.5247 39.892C31.5247 40.252 31.4287 40.564 31.2367 40.828C31.0447 41.092 30.7847 41.296 30.4567 41.44C30.1287 41.576 29.7527 41.644 29.3287 41.644Z" fill="#F5F5F5" fill-opacity="0.5"/>
</svg>
