<svg width="35" height="46" viewBox="0 0 35 46" fill="none" xmlns="http://www.w3.org/2000/svg">
<path d="M26.4138 14.6058C26.3657 14.4327 26.4715 14.1923 26.5724 14.0193C26.6033 13.9678 26.637 13.918 26.6734 13.8702C27.537 12.587 27.9989 11.0756 28.0003 9.52887C28.0148 5.09616 24.2744 1.5 19.6493 1.5C15.6157 1.5 12.2503 4.2452 11.4618 7.88944C11.3439 8.42957 11.2842 8.98081 11.2839 9.53368C11.2839 13.9712 14.8801 17.6635 19.5051 17.6635C20.2407 17.6635 21.2311 17.4423 21.7743 17.2933C22.3176 17.1443 22.8561 16.9472 22.9955 16.8943C23.1384 16.8404 23.2899 16.8127 23.4426 16.8125C23.6093 16.8119 23.7744 16.8446 23.9282 16.9087L26.6542 17.875C26.7139 17.9003 26.7771 17.9165 26.8417 17.9231C26.9437 17.9231 27.0415 17.8826 27.1136 17.8105C27.1858 17.7383 27.2263 17.6405 27.2263 17.5385C27.2229 17.4945 27.2149 17.451 27.2022 17.4087L26.4138 14.6058Z" stroke="#F5F5F5" stroke-opacity="0.5" stroke-width="1.2331" stroke-miterlimit="10" stroke-linecap="round"/>
<path d="M8.88753 10.3462C8.25697 11.479 7.95193 12.7641 8.00615 14.0595C8.06037 15.3548 8.47172 16.61 9.19474 17.6861C9.3058 17.8539 9.3683 17.9837 9.34907 18.0707C9.32984 18.1577 8.77551 21.0453 8.77551 21.0453C8.76218 21.1128 8.76724 21.1827 8.79016 21.2477C8.81307 21.3126 8.85301 21.3702 8.9058 21.4145C8.97624 21.4706 9.06382 21.5008 9.15388 21.5001C9.202 21.5002 9.24964 21.4904 9.29378 21.4712L11.9962 20.4135C12.1822 20.3402 12.3897 20.3437 12.5731 20.4231C13.4837 20.7779 14.4904 21.0001 15.4976 21.0001C16.8492 21.0015 18.1771 20.645 19.3462 19.9669" stroke="#F5F5F5" stroke-opacity="0.5" stroke-width="1.2331" stroke-miterlimit="10" stroke-linecap="round"/>
<path d="M1.2078 42.5V34.1H3.9438C4.4878 34.1 4.9678 34.212 5.3838 34.436C5.8078 34.66 6.1358 34.972 6.3678 35.372C6.6078 35.772 6.7278 36.236 6.7278 36.764C6.7278 37.276 6.6198 37.732 6.4038 38.132C6.1878 38.532 5.8918 38.848 5.5158 39.08C5.1398 39.304 4.7038 39.416 4.2078 39.416H2.2278V42.5H1.2078ZM2.2278 38.492H4.2078C4.6478 38.492 5.0078 38.332 5.2878 38.012C5.5758 37.684 5.7198 37.268 5.7198 36.764C5.7198 36.244 5.5518 35.824 5.2158 35.504C4.8798 35.184 4.4518 35.024 3.9318 35.024H2.2278V38.492ZM8.36214 39.248C8.36214 38.6 8.48614 38.076 8.73414 37.676C8.98214 37.268 9.29814 36.968 9.68214 36.776C10.0741 36.576 10.4861 36.476 10.9181 36.476V37.376C10.5661 37.376 10.2261 37.436 9.89814 37.556C9.57814 37.668 9.31414 37.856 9.10614 38.12C8.89814 38.384 8.79414 38.744 8.79414 39.2L8.36214 39.248ZM7.83414 42.5V36.5H8.79414V42.5H7.83414ZM15.5848 42.5L15.5368 41.516V39.332C15.5368 38.86 15.4848 38.472 15.3808 38.168C15.2768 37.856 15.1128 37.62 14.8888 37.46C14.6648 37.3 14.3728 37.22 14.0128 37.22C13.6848 37.22 13.4008 37.288 13.1608 37.424C12.9288 37.552 12.7368 37.76 12.5848 38.048L11.7208 37.712C11.8728 37.432 12.0568 37.192 12.2728 36.992C12.4888 36.784 12.7408 36.628 13.0288 36.524C13.3168 36.412 13.6448 36.356 14.0128 36.356C14.5728 36.356 15.0328 36.468 15.3928 36.692C15.7608 36.908 16.0368 37.232 16.2208 37.664C16.4048 38.088 16.4928 38.616 16.4848 39.248L16.4728 42.5H15.5848ZM13.7848 42.644C13.0808 42.644 12.5288 42.484 12.1288 42.164C11.7368 41.836 11.5408 41.384 11.5408 40.808C11.5408 40.2 11.7408 39.736 12.1408 39.416C12.5488 39.088 13.1168 38.924 13.8448 38.924H15.5608V39.728H14.0608C13.5008 39.728 13.1008 39.82 12.8608 40.004C12.6288 40.188 12.5128 40.452 12.5128 40.796C12.5128 41.108 12.6288 41.356 12.8608 41.54C13.0928 41.716 13.4168 41.804 13.8328 41.804C14.1768 41.804 14.4768 41.732 14.7328 41.588C14.9888 41.436 15.1848 41.224 15.3208 40.952C15.4648 40.672 15.5368 40.344 15.5368 39.968H15.9448C15.9448 40.784 15.7608 41.436 15.3928 41.924C15.0248 42.404 14.4888 42.644 13.7848 42.644ZM20.262 42.644C19.678 42.644 19.226 42.492 18.906 42.188C18.586 41.884 18.426 41.456 18.426 40.904V34.628H19.386V40.808C19.386 41.112 19.466 41.348 19.626 41.516C19.794 41.676 20.026 41.756 20.322 41.756C20.418 41.756 20.51 41.744 20.598 41.72C20.694 41.688 20.818 41.616 20.97 41.504L21.342 42.284C21.134 42.42 20.946 42.512 20.778 42.56C20.61 42.616 20.438 42.644 20.262 42.644ZM17.382 37.352V36.5H21.186V37.352H17.382ZM25.134 42.644C24.55 42.644 24.034 42.512 23.586 42.248C23.138 41.976 22.786 41.604 22.53 41.132C22.282 40.66 22.158 40.116 22.158 39.5C22.158 38.884 22.282 38.34 22.53 37.868C22.786 37.396 23.134 37.028 23.574 36.764C24.022 36.492 24.534 36.356 25.11 36.356C25.67 36.356 26.154 36.496 26.562 36.776C26.97 37.048 27.286 37.432 27.51 37.928C27.734 38.424 27.846 39.008 27.846 39.68H22.89L23.13 39.476C23.13 39.956 23.214 40.368 23.382 40.712C23.558 41.056 23.802 41.32 24.114 41.504C24.426 41.68 24.782 41.768 25.182 41.768C25.606 41.768 25.962 41.668 26.25 41.468C26.546 41.268 26.774 41.004 26.934 40.676L27.762 41.096C27.61 41.408 27.406 41.68 27.15 41.912C26.902 42.144 26.606 42.324 26.262 42.452C25.926 42.58 25.55 42.644 25.134 42.644ZM23.19 39.068L22.938 38.876H27.078L26.826 39.08C26.826 38.696 26.75 38.364 26.598 38.084C26.446 37.804 26.242 37.588 25.986 37.436C25.73 37.284 25.434 37.208 25.098 37.208C24.77 37.208 24.458 37.284 24.162 37.436C23.874 37.588 23.638 37.804 23.454 38.084C23.278 38.356 23.19 38.684 23.19 39.068ZM29.0568 42.5V36.5H29.9568L30.0168 37.604V42.5H29.0568ZM33.2688 42.5V39.428H34.2288V42.5H33.2688ZM33.2688 39.428C33.2688 38.836 33.2008 38.384 33.0648 38.072C32.9288 37.76 32.7408 37.548 32.5008 37.436C32.2608 37.316 31.9888 37.256 31.6848 37.256C31.1568 37.256 30.7448 37.444 30.4488 37.82C30.1608 38.188 30.0168 38.712 30.0168 39.392H29.5488C29.5488 38.76 29.6408 38.216 29.8248 37.76C30.0088 37.304 30.2768 36.956 30.6288 36.716C30.9808 36.476 31.4048 36.356 31.9008 36.356C32.3728 36.356 32.7808 36.452 33.1248 36.644C33.4768 36.828 33.7488 37.124 33.9408 37.532C34.1408 37.94 34.2368 38.476 34.2288 39.14V39.428H33.2688Z" fill="#F5F5F5" fill-opacity="0.5"/>
</svg>
