<svg width="35" height="46" viewBox="0 0 35 46" fill="none" xmlns="http://www.w3.org/2000/svg">
<path d="M22.4628 6.11586C22.2743 8.65794 20.3472 10.7317 18.2316 10.7317C16.116 10.7317 14.1855 8.65843 14.0004 6.11586C13.8081 3.47136 15.6832 1.5 18.2316 1.5C20.7799 1.5 22.6551 3.51944 22.4628 6.11586Z" stroke="#F5F5F5" stroke-opacity="0.5" stroke-width="1.23305" stroke-linecap="round" stroke-linejoin="round"/>
<path d="M18.2305 13.8081C14.048 13.8081 9.80297 16.1157 9.01742 20.4713C8.92272 20.9963 9.21982 21.5001 9.76932 21.5001H26.6917C27.2417 21.5001 27.5388 20.9963 27.4441 20.4713C26.6581 16.1157 22.413 13.8081 18.2305 13.8081Z" stroke="#F5F5F5" stroke-opacity="0.5" stroke-width="1.23305" stroke-miterlimit="10"/>
<path d="M1.45389 42.5V34.1H4.18989C4.73389 34.1 5.21389 34.212 5.62989 34.436C6.05389 34.66 6.38189 34.972 6.61389 35.372C6.85389 35.772 6.97389 36.236 6.97389 36.764C6.97389 37.276 6.86589 37.732 6.64989 38.132C6.43389 38.532 6.13789 38.848 5.76189 39.08C5.38589 39.304 4.94989 39.416 4.45389 39.416H2.47389V42.5H1.45389ZM2.47389 38.492H4.45389C4.89389 38.492 5.25389 38.332 5.53389 38.012C5.82189 37.684 5.96589 37.268 5.96589 36.764C5.96589 36.244 5.79789 35.824 5.46189 35.504C5.12589 35.184 4.69789 35.024 4.17789 35.024H2.47389V38.492ZM8.60823 39.248C8.60823 38.6 8.73223 38.076 8.98023 37.676C9.22823 37.268 9.54423 36.968 9.92823 36.776C10.3202 36.576 10.7322 36.476 11.1642 36.476V37.376C10.8122 37.376 10.4722 37.436 10.1442 37.556C9.82423 37.668 9.56023 37.856 9.35223 38.12C9.14423 38.384 9.04023 38.744 9.04023 39.2L8.60823 39.248ZM8.08023 42.5V36.5H9.04023V42.5H8.08023ZM14.7869 42.644C14.2029 42.644 13.6829 42.512 13.2269 42.248C12.7789 41.976 12.4269 41.604 12.1709 41.132C11.9149 40.66 11.7869 40.116 11.7869 39.5C11.7869 38.884 11.9109 38.34 12.1589 37.868C12.4149 37.396 12.7669 37.028 13.2149 36.764C13.6709 36.492 14.1869 36.356 14.7629 36.356C15.3549 36.356 15.8749 36.492 16.3229 36.764C16.7789 37.028 17.1309 37.396 17.3789 37.868C17.6349 38.34 17.7629 38.884 17.7629 39.5C17.7629 40.116 17.6349 40.66 17.3789 41.132C17.1309 41.604 16.7829 41.976 16.3349 42.248C15.8869 42.512 15.3709 42.644 14.7869 42.644ZM14.7869 41.756C15.1869 41.756 15.5349 41.66 15.8309 41.468C16.1269 41.276 16.3589 41.012 16.5269 40.676C16.7029 40.34 16.7909 39.948 16.7909 39.5C16.7909 39.052 16.7029 38.66 16.5269 38.324C16.3589 37.988 16.1229 37.724 15.8189 37.532C15.5149 37.34 15.1629 37.244 14.7629 37.244C14.3709 37.244 14.0229 37.34 13.7189 37.532C13.4229 37.724 13.1869 37.988 13.0109 38.324C12.8429 38.66 12.7589 39.052 12.7589 39.5C12.7589 39.94 12.8429 40.332 13.0109 40.676C13.1869 41.012 13.4269 41.276 13.7309 41.468C14.0429 41.66 14.3949 41.756 14.7869 41.756ZM19.6959 42.5V35.816C19.6959 35.192 19.8399 34.724 20.1279 34.412C20.4239 34.092 20.8719 33.932 21.4719 33.932C21.6319 33.932 21.8119 33.96 22.0119 34.016C22.2119 34.072 22.4239 34.152 22.6479 34.256L22.2879 35.012C22.1039 34.94 21.9479 34.884 21.8199 34.844C21.6919 34.804 21.5839 34.784 21.4959 34.784C21.2159 34.784 21.0039 34.876 20.8599 35.06C20.7239 35.236 20.6559 35.512 20.6559 35.888V42.5H19.6959ZM18.5919 37.328V36.5H22.3959V37.328H18.5919ZM23.5855 42.5V36.5H24.5455V42.5H23.5855ZM24.0775 35.108C23.9175 35.108 23.7775 35.048 23.6575 34.928C23.5375 34.808 23.4775 34.668 23.4775 34.508C23.4775 34.34 23.5375 34.2 23.6575 34.088C23.7775 33.968 23.9175 33.908 24.0775 33.908C24.2455 33.908 24.3855 33.968 24.4975 34.088C24.6175 34.2 24.6775 34.34 24.6775 34.508C24.6775 34.668 24.6175 34.808 24.4975 34.928C24.3855 35.048 24.2455 35.108 24.0775 35.108ZM28.9426 42.644C28.3586 42.644 27.8426 42.512 27.3946 42.248C26.9466 41.976 26.5946 41.604 26.3386 41.132C26.0906 40.66 25.9666 40.116 25.9666 39.5C25.9666 38.884 26.0906 38.34 26.3386 37.868C26.5946 37.396 26.9426 37.028 27.3826 36.764C27.8306 36.492 28.3426 36.356 28.9186 36.356C29.4786 36.356 29.9626 36.496 30.3706 36.776C30.7786 37.048 31.0946 37.432 31.3186 37.928C31.5426 38.424 31.6546 39.008 31.6546 39.68H26.6986L26.9386 39.476C26.9386 39.956 27.0226 40.368 27.1906 40.712C27.3666 41.056 27.6106 41.32 27.9226 41.504C28.2346 41.68 28.5906 41.768 28.9906 41.768C29.4146 41.768 29.7706 41.668 30.0586 41.468C30.3546 41.268 30.5826 41.004 30.7426 40.676L31.5706 41.096C31.4186 41.408 31.2146 41.68 30.9586 41.912C30.7106 42.144 30.4146 42.324 30.0706 42.452C29.7346 42.58 29.3586 42.644 28.9426 42.644ZM26.9986 39.068L26.7466 38.876H30.8866L30.6346 39.08C30.6346 38.696 30.5586 38.364 30.4066 38.084C30.2546 37.804 30.0506 37.588 29.7946 37.436C29.5386 37.284 29.2426 37.208 28.9066 37.208C28.5786 37.208 28.2666 37.284 27.9706 37.436C27.6826 37.588 27.4466 37.804 27.2626 38.084C27.0866 38.356 26.9986 38.684 26.9986 39.068ZM32.8654 42.5V34.1H33.8254V42.5H32.8654Z" fill="#F5F5F5" fill-opacity="0.5"/>
</svg>
