<svg width="47" height="45" viewBox="0 0 47 45" fill="none" xmlns="http://www.w3.org/2000/svg">
<path d="M15.6895 11.5345L16.3749 11.2907C22.1899 9.2232 28.5535 9.30967 34.3101 11.5345V11.5345" stroke="#F5F5F5" stroke-linecap="round"/>
<path d="M15.5 6.5C15.5 3.46243 17.9624 1 21 1H29C32.0376 1 34.5 3.46243 34.5 6.5V14.5C34.5 17.5376 32.0376 20 29 20H21C17.9624 20 15.5 17.5376 15.5 14.5V6.5Z" fill="white" stroke="#F5F5F5"/>
<path d="M3.71748 41.5L7.14948 33.1H8.21748L4.73748 41.5H3.71748ZM3.60948 41.5L0.129484 33.1H1.19748L4.61748 41.5H3.60948ZM12.3973 41.5L12.3493 40.516V38.332C12.3493 37.86 12.2973 37.472 12.1933 37.168C12.0893 36.856 11.9253 36.62 11.7013 36.46C11.4773 36.3 11.1853 36.22 10.8253 36.22C10.4973 36.22 10.2133 36.288 9.97333 36.424C9.74133 36.552 9.54933 36.76 9.39733 37.048L8.53333 36.712C8.68533 36.432 8.86933 36.192 9.08533 35.992C9.30133 35.784 9.55333 35.628 9.84133 35.524C10.1293 35.412 10.4573 35.356 10.8253 35.356C11.3853 35.356 11.8453 35.468 12.2053 35.692C12.5733 35.908 12.8493 36.232 13.0333 36.664C13.2173 37.088 13.3053 37.616 13.2973 38.248L13.2853 41.5H12.3973ZM10.5973 41.644C9.89333 41.644 9.34133 41.484 8.94133 41.164C8.54933 40.836 8.35333 40.384 8.35333 39.808C8.35333 39.2 8.55333 38.736 8.95333 38.416C9.36133 38.088 9.92933 37.924 10.6573 37.924H12.3733V38.728H10.8733C10.3133 38.728 9.91333 38.82 9.67333 39.004C9.44133 39.188 9.32533 39.452 9.32533 39.796C9.32533 40.108 9.44133 40.356 9.67333 40.54C9.90533 40.716 10.2293 40.804 10.6453 40.804C10.9893 40.804 11.2893 40.732 11.5453 40.588C11.8013 40.436 11.9973 40.224 12.1333 39.952C12.2773 39.672 12.3493 39.344 12.3493 38.968H12.7573C12.7573 39.784 12.5733 40.436 12.2053 40.924C11.8373 41.404 11.3013 41.644 10.5973 41.644ZM14.8185 41.5V35.5H15.7185L15.7785 36.604V41.5H14.8185ZM19.0305 41.5V38.428H19.9905V41.5H19.0305ZM19.0305 38.428C19.0305 37.836 18.9625 37.384 18.8265 37.072C18.6905 36.76 18.5025 36.548 18.2625 36.436C18.0225 36.316 17.7505 36.256 17.4465 36.256C16.9185 36.256 16.5065 36.444 16.2105 36.82C15.9225 37.188 15.7785 37.712 15.7785 38.392H15.3105C15.3105 37.76 15.4025 37.216 15.5865 36.76C15.7705 36.304 16.0385 35.956 16.3905 35.716C16.7425 35.476 17.1665 35.356 17.6625 35.356C18.1345 35.356 18.5425 35.452 18.8865 35.644C19.2385 35.828 19.5105 36.124 19.7025 36.532C19.9025 36.94 19.9985 37.476 19.9905 38.14V38.428H19.0305ZM25.9499 41.5L25.9019 40.384V33.1H26.8619V41.5H25.9499ZM23.8739 41.644C23.3379 41.644 22.8659 41.512 22.4579 41.248C22.0499 40.984 21.7299 40.616 21.4979 40.144C21.2739 39.664 21.1619 39.116 21.1619 38.5C21.1619 37.876 21.2739 37.328 21.4979 36.856C21.7299 36.384 22.0499 36.016 22.4579 35.752C22.8659 35.488 23.3379 35.356 23.8739 35.356C24.3779 35.356 24.8179 35.488 25.1939 35.752C25.5779 36.016 25.8739 36.384 26.0819 36.856C26.2899 37.328 26.3939 37.876 26.3939 38.5C26.3939 39.116 26.2899 39.664 26.0819 40.144C25.8739 40.616 25.5779 40.984 25.1939 41.248C24.8179 41.512 24.3779 41.644 23.8739 41.644ZM24.0899 40.768C24.4419 40.768 24.7539 40.672 25.0259 40.48C25.2979 40.288 25.5099 40.02 25.6619 39.676C25.8219 39.332 25.9019 38.94 25.9019 38.5C25.9019 38.06 25.8219 37.668 25.6619 37.324C25.5099 36.98 25.2979 36.712 25.0259 36.52C24.7539 36.328 24.4379 36.232 24.0779 36.232C23.7019 36.232 23.3659 36.328 23.0699 36.52C22.7819 36.712 22.5539 36.98 22.3859 37.324C22.2179 37.668 22.1339 38.06 22.1339 38.5C22.1339 38.94 22.2179 39.332 22.3859 39.676C22.5539 40.02 22.7859 40.288 23.0819 40.48C23.3779 40.672 23.7139 40.768 24.0899 40.768ZM32.2372 41.5L32.1892 40.516V38.332C32.1892 37.86 32.1372 37.472 32.0332 37.168C31.9292 36.856 31.7652 36.62 31.5412 36.46C31.3172 36.3 31.0252 36.22 30.6652 36.22C30.3372 36.22 30.0532 36.288 29.8132 36.424C29.5812 36.552 29.3892 36.76 29.2372 37.048L28.3732 36.712C28.5252 36.432 28.7092 36.192 28.9252 35.992C29.1412 35.784 29.3932 35.628 29.6812 35.524C29.9692 35.412 30.2972 35.356 30.6652 35.356C31.2252 35.356 31.6852 35.468 32.0452 35.692C32.4132 35.908 32.6892 36.232 32.8732 36.664C33.0572 37.088 33.1452 37.616 33.1372 38.248L33.1252 41.5H32.2372ZM30.4372 41.644C29.7332 41.644 29.1812 41.484 28.7812 41.164C28.3892 40.836 28.1932 40.384 28.1932 39.808C28.1932 39.2 28.3932 38.736 28.7932 38.416C29.2012 38.088 29.7692 37.924 30.4972 37.924H32.2132V38.728H30.7132C30.1532 38.728 29.7532 38.82 29.5132 39.004C29.2812 39.188 29.1652 39.452 29.1652 39.796C29.1652 40.108 29.2812 40.356 29.5132 40.54C29.7452 40.716 30.0692 40.804 30.4852 40.804C30.8292 40.804 31.1292 40.732 31.3852 40.588C31.6412 40.436 31.8372 40.224 31.9732 39.952C32.1172 39.672 32.1892 39.344 32.1892 38.968H32.5972C32.5972 39.784 32.4132 40.436 32.0452 40.924C31.6772 41.404 31.1412 41.644 30.4372 41.644ZM38.3544 41.5L38.3064 40.516V38.332C38.3064 37.86 38.2544 37.472 38.1504 37.168C38.0464 36.856 37.8824 36.62 37.6584 36.46C37.4344 36.3 37.1424 36.22 36.7824 36.22C36.4544 36.22 36.1704 36.288 35.9304 36.424C35.6984 36.552 35.5064 36.76 35.3544 37.048L34.4904 36.712C34.6424 36.432 34.8264 36.192 35.0424 35.992C35.2584 35.784 35.5104 35.628 35.7984 35.524C36.0864 35.412 36.4144 35.356 36.7824 35.356C37.3424 35.356 37.8024 35.468 38.1624 35.692C38.5304 35.908 38.8064 36.232 38.9904 36.664C39.1744 37.088 39.2624 37.616 39.2544 38.248L39.2424 41.5H38.3544ZM36.5544 41.644C35.8504 41.644 35.2984 41.484 34.8984 41.164C34.5064 40.836 34.3104 40.384 34.3104 39.808C34.3104 39.2 34.5104 38.736 34.9104 38.416C35.3184 38.088 35.8864 37.924 36.6144 37.924H38.3304V38.728H36.8304C36.2704 38.728 35.8704 38.82 35.6304 39.004C35.3984 39.188 35.2824 39.452 35.2824 39.796C35.2824 40.108 35.3984 40.356 35.6304 40.54C35.8624 40.716 36.1864 40.804 36.6024 40.804C36.9464 40.804 37.2464 40.732 37.5024 40.588C37.7584 40.436 37.9544 40.224 38.0904 39.952C38.2344 39.672 38.3064 39.344 38.3064 38.968H38.7144C38.7144 39.784 38.5304 40.436 38.1624 40.924C37.7944 41.404 37.2584 41.644 36.5544 41.644ZM43.1755 44.044C42.7915 44.044 42.4395 44.004 42.1195 43.924C41.8075 43.852 41.5395 43.768 41.3155 43.672C41.0995 43.584 40.9435 43.508 40.8475 43.444L41.2075 42.664C41.3115 42.72 41.4595 42.788 41.6515 42.868C41.8435 42.956 42.0675 43.028 42.3235 43.084C42.5875 43.148 42.8675 43.18 43.1635 43.18C43.5475 43.18 43.8915 43.1 44.1955 42.94C44.5075 42.788 44.7475 42.544 44.9155 42.208C45.0915 41.88 45.1795 41.456 45.1795 40.936V35.5H46.1395V40.924C46.1395 41.612 46.0115 42.188 45.7555 42.652C45.4995 43.116 45.1475 43.464 44.6995 43.696C44.2515 43.928 43.7435 44.044 43.1755 44.044ZM43.1395 41.452C42.6035 41.452 42.1315 41.324 41.7235 41.068C41.3155 40.812 40.9955 40.456 40.7635 40C40.5395 39.536 40.4275 39.008 40.4275 38.416C40.4275 37.808 40.5395 37.276 40.7635 36.82C40.9955 36.356 41.3155 35.996 41.7235 35.74C42.1315 35.484 42.6035 35.356 43.1395 35.356C43.6435 35.356 44.0835 35.484 44.4595 35.74C44.8355 35.996 45.1275 36.356 45.3355 36.82C45.5515 37.276 45.6595 37.808 45.6595 38.416C45.6595 39.016 45.5515 39.544 45.3355 40C45.1275 40.456 44.8355 40.812 44.4595 41.068C44.0835 41.324 43.6435 41.452 43.1395 41.452ZM43.3675 40.624C43.7195 40.624 44.0315 40.528 44.3035 40.336C44.5755 40.144 44.7875 39.884 44.9395 39.556C45.0915 39.22 45.1675 38.832 45.1675 38.392C45.1675 37.968 45.0875 37.592 44.9275 37.264C44.7755 36.928 44.5635 36.668 44.2915 36.484C44.0275 36.292 43.7155 36.196 43.3555 36.196C42.9795 36.196 42.6435 36.292 42.3475 36.484C42.0595 36.668 41.8315 36.928 41.6635 37.264C41.5035 37.592 41.4235 37.968 41.4235 38.392C41.4235 38.832 41.5075 39.22 41.6755 39.556C41.8435 39.884 42.0715 40.144 42.3595 40.336C42.6555 40.528 42.9915 40.624 43.3675 40.624Z" fill="#F5F5F5"/>
</svg>
