<svg width="50" height="46" viewBox="0 0 50 46" fill="none" xmlns="http://www.w3.org/2000/svg">
<path d="M17.6895 11.5345L18.3749 11.2907C24.1899 9.2232 30.5535 9.30967 36.3101 11.5345V11.5345" stroke="#060606" stroke-linecap="round"/>
<path d="M17.5 6.5C17.5 3.46243 19.9624 1 23 1H31C34.0376 1 36.5 3.46243 36.5 6.5V14.5C36.5 17.5376 34.0376 20 31 20H23C19.9624 20 17.5 17.5376 17.5 14.5V6.5Z" fill="#111111" stroke="#838383"/>
<mask id="path-3-outside-1_39_1926" maskUnits="userSpaceOnUse" x="0" y="31.5" width="50" height="14" fill="black">
<rect fill="white" y="31.5" width="50" height="14"/>
<path d="M5.71748 41.5L9.14948 33.1H10.2175L6.73748 41.5H5.71748ZM5.60948 41.5L2.12948 33.1H3.19748L6.61748 41.5H5.60948ZM14.3973 41.5L14.3493 40.516V38.332C14.3493 37.86 14.2973 37.472 14.1933 37.168C14.0893 36.856 13.9253 36.62 13.7013 36.46C13.4773 36.3 13.1853 36.22 12.8253 36.22C12.4973 36.22 12.2133 36.288 11.9733 36.424C11.7413 36.552 11.5493 36.76 11.3973 37.048L10.5333 36.712C10.6853 36.432 10.8693 36.192 11.0853 35.992C11.3013 35.784 11.5533 35.628 11.8413 35.524C12.1293 35.412 12.4573 35.356 12.8253 35.356C13.3853 35.356 13.8453 35.468 14.2053 35.692C14.5733 35.908 14.8493 36.232 15.0333 36.664C15.2173 37.088 15.3053 37.616 15.2973 38.248L15.2853 41.5H14.3973ZM12.5973 41.644C11.8933 41.644 11.3413 41.484 10.9413 41.164C10.5493 40.836 10.3533 40.384 10.3533 39.808C10.3533 39.2 10.5533 38.736 10.9533 38.416C11.3613 38.088 11.9293 37.924 12.6573 37.924H14.3733V38.728H12.8733C12.3133 38.728 11.9133 38.82 11.6733 39.004C11.4413 39.188 11.3253 39.452 11.3253 39.796C11.3253 40.108 11.4413 40.356 11.6733 40.54C11.9053 40.716 12.2293 40.804 12.6453 40.804C12.9893 40.804 13.2893 40.732 13.5453 40.588C13.8013 40.436 13.9973 40.224 14.1333 39.952C14.2773 39.672 14.3493 39.344 14.3493 38.968H14.7573C14.7573 39.784 14.5733 40.436 14.2053 40.924C13.8373 41.404 13.3013 41.644 12.5973 41.644ZM16.8185 41.5V35.5H17.7185L17.7785 36.604V41.5H16.8185ZM21.0305 41.5V38.428H21.9905V41.5H21.0305ZM21.0305 38.428C21.0305 37.836 20.9625 37.384 20.8265 37.072C20.6905 36.76 20.5025 36.548 20.2625 36.436C20.0225 36.316 19.7505 36.256 19.4465 36.256C18.9185 36.256 18.5065 36.444 18.2105 36.82C17.9225 37.188 17.7785 37.712 17.7785 38.392H17.3105C17.3105 37.76 17.4025 37.216 17.5865 36.76C17.7705 36.304 18.0385 35.956 18.3905 35.716C18.7425 35.476 19.1665 35.356 19.6625 35.356C20.1345 35.356 20.5425 35.452 20.8865 35.644C21.2385 35.828 21.5105 36.124 21.7025 36.532C21.9025 36.94 21.9985 37.476 21.9905 38.14V38.428H21.0305ZM27.9499 41.5L27.9019 40.384V33.1H28.8619V41.5H27.9499ZM25.8739 41.644C25.3379 41.644 24.8659 41.512 24.4579 41.248C24.0499 40.984 23.7299 40.616 23.4979 40.144C23.2739 39.664 23.1619 39.116 23.1619 38.5C23.1619 37.876 23.2739 37.328 23.4979 36.856C23.7299 36.384 24.0499 36.016 24.4579 35.752C24.8659 35.488 25.3379 35.356 25.8739 35.356C26.3779 35.356 26.8179 35.488 27.1939 35.752C27.5779 36.016 27.8739 36.384 28.0819 36.856C28.2899 37.328 28.3939 37.876 28.3939 38.5C28.3939 39.116 28.2899 39.664 28.0819 40.144C27.8739 40.616 27.5779 40.984 27.1939 41.248C26.8179 41.512 26.3779 41.644 25.8739 41.644ZM26.0899 40.768C26.4419 40.768 26.7539 40.672 27.0259 40.48C27.2979 40.288 27.5099 40.02 27.6619 39.676C27.8219 39.332 27.9019 38.94 27.9019 38.5C27.9019 38.06 27.8219 37.668 27.6619 37.324C27.5099 36.98 27.2979 36.712 27.0259 36.52C26.7539 36.328 26.4379 36.232 26.0779 36.232C25.7019 36.232 25.3659 36.328 25.0699 36.52C24.7819 36.712 24.5539 36.98 24.3859 37.324C24.2179 37.668 24.1339 38.06 24.1339 38.5C24.1339 38.94 24.2179 39.332 24.3859 39.676C24.5539 40.02 24.7859 40.288 25.0819 40.48C25.3779 40.672 25.7139 40.768 26.0899 40.768ZM34.2372 41.5L34.1892 40.516V38.332C34.1892 37.86 34.1372 37.472 34.0332 37.168C33.9292 36.856 33.7652 36.62 33.5412 36.46C33.3172 36.3 33.0252 36.22 32.6652 36.22C32.3372 36.22 32.0532 36.288 31.8132 36.424C31.5812 36.552 31.3892 36.76 31.2372 37.048L30.3732 36.712C30.5252 36.432 30.7092 36.192 30.9252 35.992C31.1412 35.784 31.3932 35.628 31.6812 35.524C31.9692 35.412 32.2972 35.356 32.6652 35.356C33.2252 35.356 33.6852 35.468 34.0452 35.692C34.4132 35.908 34.6892 36.232 34.8732 36.664C35.0572 37.088 35.1452 37.616 35.1372 38.248L35.1252 41.5H34.2372ZM32.4372 41.644C31.7332 41.644 31.1812 41.484 30.7812 41.164C30.3892 40.836 30.1932 40.384 30.1932 39.808C30.1932 39.2 30.3932 38.736 30.7932 38.416C31.2012 38.088 31.7692 37.924 32.4972 37.924H34.2132V38.728H32.7132C32.1532 38.728 31.7532 38.82 31.5132 39.004C31.2812 39.188 31.1652 39.452 31.1652 39.796C31.1652 40.108 31.2812 40.356 31.5132 40.54C31.7452 40.716 32.0692 40.804 32.4852 40.804C32.8292 40.804 33.1292 40.732 33.3852 40.588C33.6412 40.436 33.8372 40.224 33.9732 39.952C34.1172 39.672 34.1892 39.344 34.1892 38.968H34.5972C34.5972 39.784 34.4132 40.436 34.0452 40.924C33.6772 41.404 33.1412 41.644 32.4372 41.644ZM40.3544 41.5L40.3064 40.516V38.332C40.3064 37.86 40.2544 37.472 40.1504 37.168C40.0464 36.856 39.8824 36.62 39.6584 36.46C39.4344 36.3 39.1424 36.22 38.7824 36.22C38.4544 36.22 38.1704 36.288 37.9304 36.424C37.6984 36.552 37.5064 36.76 37.3544 37.048L36.4904 36.712C36.6424 36.432 36.8264 36.192 37.0424 35.992C37.2584 35.784 37.5104 35.628 37.7984 35.524C38.0864 35.412 38.4144 35.356 38.7824 35.356C39.3424 35.356 39.8024 35.468 40.1624 35.692C40.5304 35.908 40.8064 36.232 40.9904 36.664C41.1744 37.088 41.2624 37.616 41.2544 38.248L41.2424 41.5H40.3544ZM38.5544 41.644C37.8504 41.644 37.2984 41.484 36.8984 41.164C36.5064 40.836 36.3104 40.384 36.3104 39.808C36.3104 39.2 36.5104 38.736 36.9104 38.416C37.3184 38.088 37.8864 37.924 38.6144 37.924H40.3304V38.728H38.8304C38.2704 38.728 37.8704 38.82 37.6304 39.004C37.3984 39.188 37.2824 39.452 37.2824 39.796C37.2824 40.108 37.3984 40.356 37.6304 40.54C37.8624 40.716 38.1864 40.804 38.6024 40.804C38.9464 40.804 39.2464 40.732 39.5024 40.588C39.7584 40.436 39.9544 40.224 40.0904 39.952C40.2344 39.672 40.3064 39.344 40.3064 38.968H40.7144C40.7144 39.784 40.5304 40.436 40.1624 40.924C39.7944 41.404 39.2584 41.644 38.5544 41.644ZM45.1755 44.044C44.7915 44.044 44.4395 44.004 44.1195 43.924C43.8075 43.852 43.5395 43.768 43.3155 43.672C43.0995 43.584 42.9435 43.508 42.8475 43.444L43.2075 42.664C43.3115 42.72 43.4595 42.788 43.6515 42.868C43.8435 42.956 44.0675 43.028 44.3235 43.084C44.5875 43.148 44.8675 43.18 45.1635 43.18C45.5475 43.18 45.8915 43.1 46.1955 42.94C46.5075 42.788 46.7475 42.544 46.9155 42.208C47.0915 41.88 47.1795 41.456 47.1795 40.936V35.5H48.1395V40.924C48.1395 41.612 48.0115 42.188 47.7555 42.652C47.4995 43.116 47.1475 43.464 46.6995 43.696C46.2515 43.928 45.7435 44.044 45.1755 44.044ZM45.1395 41.452C44.6035 41.452 44.1315 41.324 43.7235 41.068C43.3155 40.812 42.9955 40.456 42.7635 40C42.5395 39.536 42.4275 39.008 42.4275 38.416C42.4275 37.808 42.5395 37.276 42.7635 36.82C42.9955 36.356 43.3155 35.996 43.7235 35.74C44.1315 35.484 44.6035 35.356 45.1395 35.356C45.6435 35.356 46.0835 35.484 46.4595 35.74C46.8355 35.996 47.1275 36.356 47.3355 36.82C47.5515 37.276 47.6595 37.808 47.6595 38.416C47.6595 39.016 47.5515 39.544 47.3355 40C47.1275 40.456 46.8355 40.812 46.4595 41.068C46.0835 41.324 45.6435 41.452 45.1395 41.452ZM45.3675 40.624C45.7195 40.624 46.0315 40.528 46.3035 40.336C46.5755 40.144 46.7875 39.884 46.9395 39.556C47.0915 39.22 47.1675 38.832 47.1675 38.392C47.1675 37.968 47.0875 37.592 46.9275 37.264C46.7755 36.928 46.5635 36.668 46.2915 36.484C46.0275 36.292 45.7155 36.196 45.3555 36.196C44.9795 36.196 44.6435 36.292 44.3475 36.484C44.0595 36.668 43.8315 36.928 43.6635 37.264C43.5035 37.592 43.4235 37.968 43.4235 38.392C43.4235 38.832 43.5075 39.22 43.6755 39.556C43.8435 39.884 44.0715 40.144 44.3595 40.336C44.6555 40.528 44.9915 40.624 45.3675 40.624Z"/>
</mask>
<path d="M5.71748 41.5L9.14948 33.1H10.2175L6.73748 41.5H5.71748ZM5.60948 41.5L2.12948 33.1H3.19748L6.61748 41.5H5.60948ZM14.3973 41.5L14.3493 40.516V38.332C14.3493 37.86 14.2973 37.472 14.1933 37.168C14.0893 36.856 13.9253 36.62 13.7013 36.46C13.4773 36.3 13.1853 36.22 12.8253 36.22C12.4973 36.22 12.2133 36.288 11.9733 36.424C11.7413 36.552 11.5493 36.76 11.3973 37.048L10.5333 36.712C10.6853 36.432 10.8693 36.192 11.0853 35.992C11.3013 35.784 11.5533 35.628 11.8413 35.524C12.1293 35.412 12.4573 35.356 12.8253 35.356C13.3853 35.356 13.8453 35.468 14.2053 35.692C14.5733 35.908 14.8493 36.232 15.0333 36.664C15.2173 37.088 15.3053 37.616 15.2973 38.248L15.2853 41.5H14.3973ZM12.5973 41.644C11.8933 41.644 11.3413 41.484 10.9413 41.164C10.5493 40.836 10.3533 40.384 10.3533 39.808C10.3533 39.2 10.5533 38.736 10.9533 38.416C11.3613 38.088 11.9293 37.924 12.6573 37.924H14.3733V38.728H12.8733C12.3133 38.728 11.9133 38.82 11.6733 39.004C11.4413 39.188 11.3253 39.452 11.3253 39.796C11.3253 40.108 11.4413 40.356 11.6733 40.54C11.9053 40.716 12.2293 40.804 12.6453 40.804C12.9893 40.804 13.2893 40.732 13.5453 40.588C13.8013 40.436 13.9973 40.224 14.1333 39.952C14.2773 39.672 14.3493 39.344 14.3493 38.968H14.7573C14.7573 39.784 14.5733 40.436 14.2053 40.924C13.8373 41.404 13.3013 41.644 12.5973 41.644ZM16.8185 41.5V35.5H17.7185L17.7785 36.604V41.5H16.8185ZM21.0305 41.5V38.428H21.9905V41.5H21.0305ZM21.0305 38.428C21.0305 37.836 20.9625 37.384 20.8265 37.072C20.6905 36.76 20.5025 36.548 20.2625 36.436C20.0225 36.316 19.7505 36.256 19.4465 36.256C18.9185 36.256 18.5065 36.444 18.2105 36.82C17.9225 37.188 17.7785 37.712 17.7785 38.392H17.3105C17.3105 37.76 17.4025 37.216 17.5865 36.76C17.7705 36.304 18.0385 35.956 18.3905 35.716C18.7425 35.476 19.1665 35.356 19.6625 35.356C20.1345 35.356 20.5425 35.452 20.8865 35.644C21.2385 35.828 21.5105 36.124 21.7025 36.532C21.9025 36.94 21.9985 37.476 21.9905 38.14V38.428H21.0305ZM27.9499 41.5L27.9019 40.384V33.1H28.8619V41.5H27.9499ZM25.8739 41.644C25.3379 41.644 24.8659 41.512 24.4579 41.248C24.0499 40.984 23.7299 40.616 23.4979 40.144C23.2739 39.664 23.1619 39.116 23.1619 38.5C23.1619 37.876 23.2739 37.328 23.4979 36.856C23.7299 36.384 24.0499 36.016 24.4579 35.752C24.8659 35.488 25.3379 35.356 25.8739 35.356C26.3779 35.356 26.8179 35.488 27.1939 35.752C27.5779 36.016 27.8739 36.384 28.0819 36.856C28.2899 37.328 28.3939 37.876 28.3939 38.5C28.3939 39.116 28.2899 39.664 28.0819 40.144C27.8739 40.616 27.5779 40.984 27.1939 41.248C26.8179 41.512 26.3779 41.644 25.8739 41.644ZM26.0899 40.768C26.4419 40.768 26.7539 40.672 27.0259 40.48C27.2979 40.288 27.5099 40.02 27.6619 39.676C27.8219 39.332 27.9019 38.94 27.9019 38.5C27.9019 38.06 27.8219 37.668 27.6619 37.324C27.5099 36.98 27.2979 36.712 27.0259 36.52C26.7539 36.328 26.4379 36.232 26.0779 36.232C25.7019 36.232 25.3659 36.328 25.0699 36.52C24.7819 36.712 24.5539 36.98 24.3859 37.324C24.2179 37.668 24.1339 38.06 24.1339 38.5C24.1339 38.94 24.2179 39.332 24.3859 39.676C24.5539 40.02 24.7859 40.288 25.0819 40.48C25.3779 40.672 25.7139 40.768 26.0899 40.768ZM34.2372 41.5L34.1892 40.516V38.332C34.1892 37.86 34.1372 37.472 34.0332 37.168C33.9292 36.856 33.7652 36.62 33.5412 36.46C33.3172 36.3 33.0252 36.22 32.6652 36.22C32.3372 36.22 32.0532 36.288 31.8132 36.424C31.5812 36.552 31.3892 36.76 31.2372 37.048L30.3732 36.712C30.5252 36.432 30.7092 36.192 30.9252 35.992C31.1412 35.784 31.3932 35.628 31.6812 35.524C31.9692 35.412 32.2972 35.356 32.6652 35.356C33.2252 35.356 33.6852 35.468 34.0452 35.692C34.4132 35.908 34.6892 36.232 34.8732 36.664C35.0572 37.088 35.1452 37.616 35.1372 38.248L35.1252 41.5H34.2372ZM32.4372 41.644C31.7332 41.644 31.1812 41.484 30.7812 41.164C30.3892 40.836 30.1932 40.384 30.1932 39.808C30.1932 39.2 30.3932 38.736 30.7932 38.416C31.2012 38.088 31.7692 37.924 32.4972 37.924H34.2132V38.728H32.7132C32.1532 38.728 31.7532 38.82 31.5132 39.004C31.2812 39.188 31.1652 39.452 31.1652 39.796C31.1652 40.108 31.2812 40.356 31.5132 40.54C31.7452 40.716 32.0692 40.804 32.4852 40.804C32.8292 40.804 33.1292 40.732 33.3852 40.588C33.6412 40.436 33.8372 40.224 33.9732 39.952C34.1172 39.672 34.1892 39.344 34.1892 38.968H34.5972C34.5972 39.784 34.4132 40.436 34.0452 40.924C33.6772 41.404 33.1412 41.644 32.4372 41.644ZM40.3544 41.5L40.3064 40.516V38.332C40.3064 37.86 40.2544 37.472 40.1504 37.168C40.0464 36.856 39.8824 36.62 39.6584 36.46C39.4344 36.3 39.1424 36.22 38.7824 36.22C38.4544 36.22 38.1704 36.288 37.9304 36.424C37.6984 36.552 37.5064 36.76 37.3544 37.048L36.4904 36.712C36.6424 36.432 36.8264 36.192 37.0424 35.992C37.2584 35.784 37.5104 35.628 37.7984 35.524C38.0864 35.412 38.4144 35.356 38.7824 35.356C39.3424 35.356 39.8024 35.468 40.1624 35.692C40.5304 35.908 40.8064 36.232 40.9904 36.664C41.1744 37.088 41.2624 37.616 41.2544 38.248L41.2424 41.5H40.3544ZM38.5544 41.644C37.8504 41.644 37.2984 41.484 36.8984 41.164C36.5064 40.836 36.3104 40.384 36.3104 39.808C36.3104 39.2 36.5104 38.736 36.9104 38.416C37.3184 38.088 37.8864 37.924 38.6144 37.924H40.3304V38.728H38.8304C38.2704 38.728 37.8704 38.82 37.6304 39.004C37.3984 39.188 37.2824 39.452 37.2824 39.796C37.2824 40.108 37.3984 40.356 37.6304 40.54C37.8624 40.716 38.1864 40.804 38.6024 40.804C38.9464 40.804 39.2464 40.732 39.5024 40.588C39.7584 40.436 39.9544 40.224 40.0904 39.952C40.2344 39.672 40.3064 39.344 40.3064 38.968H40.7144C40.7144 39.784 40.5304 40.436 40.1624 40.924C39.7944 41.404 39.2584 41.644 38.5544 41.644ZM45.1755 44.044C44.7915 44.044 44.4395 44.004 44.1195 43.924C43.8075 43.852 43.5395 43.768 43.3155 43.672C43.0995 43.584 42.9435 43.508 42.8475 43.444L43.2075 42.664C43.3115 42.72 43.4595 42.788 43.6515 42.868C43.8435 42.956 44.0675 43.028 44.3235 43.084C44.5875 43.148 44.8675 43.18 45.1635 43.18C45.5475 43.18 45.8915 43.1 46.1955 42.94C46.5075 42.788 46.7475 42.544 46.9155 42.208C47.0915 41.88 47.1795 41.456 47.1795 40.936V35.5H48.1395V40.924C48.1395 41.612 48.0115 42.188 47.7555 42.652C47.4995 43.116 47.1475 43.464 46.6995 43.696C46.2515 43.928 45.7435 44.044 45.1755 44.044ZM45.1395 41.452C44.6035 41.452 44.1315 41.324 43.7235 41.068C43.3155 40.812 42.9955 40.456 42.7635 40C42.5395 39.536 42.4275 39.008 42.4275 38.416C42.4275 37.808 42.5395 37.276 42.7635 36.82C42.9955 36.356 43.3155 35.996 43.7235 35.74C44.1315 35.484 44.6035 35.356 45.1395 35.356C45.6435 35.356 46.0835 35.484 46.4595 35.74C46.8355 35.996 47.1275 36.356 47.3355 36.82C47.5515 37.276 47.6595 37.808 47.6595 38.416C47.6595 39.016 47.5515 39.544 47.3355 40C47.1275 40.456 46.8355 40.812 46.4595 41.068C46.0835 41.324 45.6435 41.452 45.1395 41.452ZM45.3675 40.624C45.7195 40.624 46.0315 40.528 46.3035 40.336C46.5755 40.144 46.7875 39.884 46.9395 39.556C47.0915 39.22 47.1675 38.832 47.1675 38.392C47.1675 37.968 47.0875 37.592 46.9275 37.264C46.7755 36.928 46.5635 36.668 46.2915 36.484C46.0275 36.292 45.7155 36.196 45.3555 36.196C44.9795 36.196 44.6435 36.292 44.3475 36.484C44.0595 36.668 43.8315 36.928 43.6635 37.264C43.5035 37.592 43.4235 37.968 43.4235 38.392C43.4235 38.832 43.5075 39.22 43.6755 39.556C43.8435 39.884 44.0715 40.144 44.3595 40.336C44.6555 40.528 44.9915 40.624 45.3675 40.624Z" fill="#F5F5F5"/>
<path d="M5.71748 41.5L4.79177 41.1218L4.22867 42.5H5.71748V41.5ZM9.14948 33.1V32.1H8.47781L8.22377 32.7218L9.14948 33.1ZM10.2175 33.1L11.1413 33.4827L11.7142 32.1H10.2175V33.1ZM6.73748 41.5V42.5H7.40562L7.66134 41.8827L6.73748 41.5ZM5.60948 41.5L4.68563 41.8827L4.94135 42.5H5.60948V41.5ZM2.12948 33.1V32.1H0.632779L1.20563 33.4827L2.12948 33.1ZM3.19748 33.1L4.12366 32.7229L3.87005 32.1H3.19748V33.1ZM6.61748 41.5V42.5H8.10433L7.54366 41.1229L6.61748 41.5ZM6.6432 41.8782L10.0752 33.4782L8.22377 32.7218L4.79177 41.1218L6.6432 41.8782ZM9.14948 34.1H10.2175V32.1H9.14948V34.1ZM9.29363 32.7173L5.81363 41.1173L7.66134 41.8827L11.1413 33.4827L9.29363 32.7173ZM6.73748 40.5H5.71748V42.5H6.73748V40.5ZM6.53334 41.1173L3.05334 32.7173L1.20563 33.4827L4.68563 41.8827L6.53334 41.1173ZM2.12948 34.1H3.19748V32.1H2.12948V34.1ZM2.27131 33.4771L5.69131 41.8771L7.54366 41.1229L4.12366 32.7229L2.27131 33.4771ZM6.61748 40.5H5.60948V42.5H6.61748V40.5ZM14.3973 41.5L13.3985 41.5487L13.4449 42.5H14.3973V41.5ZM14.3493 40.516H13.3493V40.5404L13.3505 40.5647L14.3493 40.516ZM14.1933 37.168L13.2446 37.4842L13.2472 37.4917L14.1933 37.168ZM11.9733 36.424L12.4564 37.2996L12.4663 37.294L11.9733 36.424ZM11.3973 37.048L11.0349 37.98L11.8657 38.3031L12.2817 37.5148L11.3973 37.048ZM10.5333 36.712L9.65447 36.2349L9.11289 37.2326L10.1709 37.644L10.5333 36.712ZM11.0853 35.992L11.7647 36.7258L11.7719 36.7191L11.779 36.7123L11.0853 35.992ZM11.8413 35.524L12.181 36.4646L12.1924 36.4604L12.2038 36.456L11.8413 35.524ZM14.2053 35.692L13.677 36.5411L13.688 36.5479L13.6991 36.5544L14.2053 35.692ZM15.0333 36.664L14.1133 37.0559L14.116 37.0621L15.0333 36.664ZM15.2973 38.248L14.2974 38.2353L14.2973 38.2443L15.2973 38.248ZM15.2853 41.5V42.5H16.2816L16.2853 41.5037L15.2853 41.5ZM10.9413 41.164L10.2996 41.9309L10.308 41.938L10.3166 41.9449L10.9413 41.164ZM10.9533 38.416L11.578 39.1969L11.5799 39.1954L10.9533 38.416ZM14.3733 37.924H15.3733V36.924H14.3733V37.924ZM14.3733 38.728V39.728H15.3733V38.728H14.3733ZM11.6733 39.004L11.0649 38.2104L11.0584 38.2154L11.0519 38.2205L11.6733 39.004ZM11.6733 40.54L11.0519 41.3235L11.0604 41.3302L11.0689 41.3367L11.6733 40.54ZM13.5453 40.588L14.0356 41.4596L14.0458 41.4538L14.0559 41.4479L13.5453 40.588ZM14.1333 39.952L13.244 39.4946L13.2389 39.5048L14.1333 39.952ZM14.3493 38.968V37.968H13.3493V38.968H14.3493ZM14.7573 38.968H15.7573V37.968H14.7573V38.968ZM14.2053 40.924L14.999 41.5325L15.0038 41.5261L14.2053 40.924ZM15.3961 41.4513L15.3481 40.4673L13.3505 40.5647L13.3985 41.5487L15.3961 41.4513ZM15.3493 40.516V38.332H13.3493V40.516H15.3493ZM15.3493 38.332C15.3493 37.7966 15.2916 37.2891 15.1395 36.8443L13.2472 37.4917C13.303 37.6549 13.3493 37.9234 13.3493 38.332H15.3493ZM15.142 36.8518C14.9845 36.3793 14.71 35.9516 14.2826 35.6463L13.1201 37.2737C13.1407 37.2884 13.1941 37.3327 13.2446 37.4842L15.142 36.8518ZM14.2826 35.6463C13.8436 35.3327 13.33 35.22 12.8253 35.22V37.22C13.0407 37.22 13.1111 37.2673 13.1201 37.2737L14.2826 35.6463ZM12.8253 35.22C12.3573 35.22 11.8968 35.318 11.4803 35.554L12.4663 37.294C12.5299 37.258 12.6374 37.22 12.8253 37.22V35.22ZM11.4903 35.5484C11.052 35.7902 10.735 36.1605 10.5129 36.5812L12.2817 37.5148C12.3636 37.3595 12.4307 37.3138 12.4564 37.2996L11.4903 35.5484ZM11.7598 36.116L10.8958 35.78L10.1709 37.644L11.0349 37.98L11.7598 36.116ZM11.4122 37.1891C11.5164 36.9971 11.6351 36.8458 11.7647 36.7258L10.4059 35.2582C10.1036 35.5382 9.85423 35.8669 9.65447 36.2349L11.4122 37.1891ZM11.779 36.7123C11.8916 36.6039 12.0223 36.5219 12.181 36.4646L11.5017 34.5834C11.0844 34.7341 10.7111 34.9641 10.3917 35.2717L11.779 36.7123ZM12.2038 36.456C12.3565 36.3966 12.5582 36.356 12.8253 36.356V34.356C12.3565 34.356 11.9022 34.4274 11.4789 34.592L12.2038 36.456ZM12.8253 36.356C13.2571 36.356 13.5188 36.4426 13.677 36.5411L14.7336 34.8429C14.1718 34.4934 13.5136 34.356 12.8253 34.356V36.356ZM13.6991 36.5544C13.8637 36.651 14.0044 36.8001 14.1133 37.0559L15.9534 36.2721C15.6943 35.6639 15.283 35.165 14.7115 34.8296L13.6991 36.5544ZM14.116 37.0621C14.2271 37.3182 14.3042 37.6957 14.2974 38.2353L16.2972 38.2607C16.3064 37.5363 16.2075 36.8578 15.9507 36.2659L14.116 37.0621ZM14.2973 38.2443L14.2853 41.4963L16.2853 41.5037L16.2973 38.2517L14.2973 38.2443ZM15.2853 40.5H14.3973V42.5H15.2853V40.5ZM12.5973 40.644C12.0362 40.644 11.7326 40.5164 11.566 40.3831L10.3166 41.9449C10.9501 42.4516 11.7504 42.644 12.5973 42.644V40.644ZM11.5831 40.3971C11.4486 40.2846 11.3533 40.1302 11.3533 39.808H9.35333C9.35333 40.6378 9.65002 41.3874 10.2996 41.9309L11.5831 40.3971ZM11.3533 39.808C11.3533 39.4405 11.4606 39.2908 11.578 39.1969L10.3286 37.6351C9.64603 38.1812 9.35333 38.9595 9.35333 39.808H11.3533ZM11.5799 39.1954C11.7522 39.0569 12.0694 38.924 12.6573 38.924V36.924C11.7893 36.924 10.9705 37.1191 10.3268 37.6366L11.5799 39.1954ZM12.6573 38.924H14.3733V36.924H12.6573V38.924ZM13.3733 37.924V38.728H15.3733V37.924H13.3733ZM14.3733 37.728H12.8733V39.728H14.3733V37.728ZM12.8733 37.728C12.2564 37.728 11.5753 37.8191 11.0649 38.2104L12.2818 39.7976C12.2552 39.818 12.27 39.7963 12.3775 39.7716C12.4828 39.7473 12.6435 39.728 12.8733 39.728V37.728ZM11.0519 38.2205C10.5404 38.6262 10.3253 39.2022 10.3253 39.796H12.3253C12.3253 39.766 12.3279 39.7482 12.3294 39.7404C12.3308 39.7329 12.3312 39.7346 12.3278 39.7423C12.3243 39.7503 12.3186 39.7604 12.3108 39.7705C12.3031 39.7804 12.2967 39.7859 12.2947 39.7875L11.0519 38.2205ZM10.3253 39.796C10.3253 40.3943 10.5663 40.9383 11.0519 41.3235L12.2947 39.7565C12.2909 39.7535 12.2938 39.7552 12.2998 39.7627C12.306 39.7704 12.3127 39.7806 12.3181 39.7923C12.3235 39.8039 12.3257 39.8123 12.3263 39.8152C12.3268 39.8176 12.3253 39.812 12.3253 39.796H10.3253ZM11.0689 41.3367C11.5354 41.6905 12.1018 41.804 12.6453 41.804V39.804C12.5057 39.804 12.4115 39.789 12.3524 39.773C12.3236 39.7651 12.3047 39.7575 12.2935 39.7522C12.2825 39.7469 12.278 39.7436 12.2777 39.7433L11.0689 41.3367ZM12.6453 41.804C13.1315 41.804 13.6061 41.7012 14.0356 41.4596L13.0551 39.7164C12.9726 39.7628 12.8472 39.804 12.6453 39.804V41.804ZM14.0559 41.4479C14.4804 41.1958 14.8079 40.8388 15.0278 40.3992L13.2389 39.5048C13.1867 39.6092 13.1222 39.6762 13.0348 39.7281L14.0559 41.4479ZM15.0226 40.4093C15.2522 39.9629 15.3493 39.4724 15.3493 38.968H13.3493C13.3493 39.2156 13.3024 39.3811 13.244 39.4947L15.0226 40.4093ZM14.3493 39.968H14.7573V37.968H14.3493V39.968ZM13.7573 38.968C13.7573 39.639 13.6064 40.0574 13.4069 40.3219L15.0038 41.5261C15.5403 40.8146 15.7573 39.929 15.7573 38.968H13.7573ZM13.4117 40.3156C13.2655 40.5063 13.0479 40.644 12.5973 40.644V42.644C13.5547 42.644 14.4092 42.3017 14.9989 41.5324L13.4117 40.3156ZM16.8185 41.5H15.8185V42.5H16.8185V41.5ZM16.8185 35.5V34.5H15.8185V35.5H16.8185ZM17.7185 35.5L18.717 35.4457L18.6656 34.5H17.7185V35.5ZM17.7785 36.604H18.7785V36.5768L18.777 36.5497L17.7785 36.604ZM17.7785 41.5V42.5H18.7785V41.5H17.7785ZM21.0305 41.5H20.0305V42.5H21.0305V41.5ZM21.0305 38.428V37.428H20.0305V38.428H21.0305ZM21.9905 38.428H22.9905V37.428H21.9905V38.428ZM21.9905 41.5V42.5H22.9905V41.5H21.9905ZM21.0305 38.428H20.0305V39.428H21.0305V38.428ZM20.8265 37.072L19.9098 37.4716L19.9098 37.4716L20.8265 37.072ZM20.2625 36.436L19.8153 37.3304L19.8274 37.3365L19.8396 37.3422L20.2625 36.436ZM18.2105 36.82L17.4248 36.2014L17.423 36.2037L18.2105 36.82ZM17.7785 38.392V39.392H18.7785V38.392H17.7785ZM17.3105 38.392H16.3105V39.392H17.3105V38.392ZM17.5865 36.76L18.5139 37.1342L18.5139 37.1342L17.5865 36.76ZM20.8865 35.644L20.3991 36.5172L20.4111 36.5239L20.4233 36.5302L20.8865 35.644ZM21.7025 36.532L20.7977 36.9578L20.8011 36.965L20.8046 36.9722L21.7025 36.532ZM21.9905 38.14L20.9905 38.128V38.14H21.9905ZM21.9905 38.428V39.428H22.9905V38.428H21.9905ZM17.8185 41.5V35.5H15.8185V41.5H17.8185ZM16.8185 36.5H17.7185V34.5H16.8185V36.5ZM16.72 35.5543L16.78 36.6583L18.777 36.5497L18.717 35.4457L16.72 35.5543ZM16.7785 36.604V41.5H18.7785V36.604H16.7785ZM17.7785 40.5H16.8185V42.5H17.7785V40.5ZM22.0305 41.5V38.428H20.0305V41.5H22.0305ZM21.0305 39.428H21.9905V37.428H21.0305V39.428ZM20.9905 38.428V41.5H22.9905V38.428H20.9905ZM21.9905 40.5H21.0305V42.5H21.9905V40.5ZM22.0305 38.428C22.0305 37.7853 21.9606 37.1711 21.7432 36.6724L19.9098 37.4716C19.9644 37.5968 20.0305 37.8867 20.0305 38.428H22.0305ZM21.7432 36.6724C21.5384 36.2024 21.2033 35.7715 20.6854 35.5298L19.8396 37.3422C19.8273 37.3364 19.8256 37.3315 19.8353 37.3425C19.8473 37.356 19.8756 37.3931 19.9098 37.4716L21.7432 36.6724ZM20.7097 35.5416C20.3134 35.3434 19.885 35.256 19.4465 35.256V37.256C19.6161 37.256 19.7316 37.2886 19.8153 37.3304L20.7097 35.5416ZM19.4465 35.256C18.6482 35.256 17.9317 35.5575 17.4248 36.2014L18.9963 37.4386C19.0813 37.3305 19.1888 37.256 19.4465 37.256V35.256ZM17.423 36.2037C16.947 36.8119 16.7785 37.5869 16.7785 38.392H18.7785C18.7785 37.8371 18.898 37.5641 18.998 37.4363L17.423 36.2037ZM17.7785 37.392H17.3105V39.392H17.7785V37.392ZM18.3105 38.392C18.3105 37.8533 18.3894 37.4427 18.5139 37.1342L16.6592 36.3858C16.4156 36.9893 16.3105 37.6667 16.3105 38.392H18.3105ZM18.5139 37.1342C18.6356 36.8325 18.7893 36.6544 18.9539 36.5422L17.8272 34.8898C17.2877 35.2576 16.9054 35.7755 16.6592 36.3858L18.5139 37.1342ZM18.9539 36.5422C19.1138 36.4331 19.3336 36.356 19.6625 36.356V34.356C18.9994 34.356 18.3712 34.5189 17.8272 34.8898L18.9539 36.5422ZM19.6625 36.356C19.9977 36.356 20.2311 36.4234 20.3991 36.5172L21.3739 34.7708C20.854 34.4806 20.2714 34.356 19.6625 34.356V36.356ZM20.4233 36.5302C20.556 36.5996 20.6855 36.7194 20.7977 36.9578L22.6073 36.1062C22.3355 35.5286 21.921 35.0564 21.3498 34.7578L20.4233 36.5302ZM20.8046 36.9722C20.9112 37.1897 20.9975 37.5537 20.9906 38.128L22.9904 38.152C22.9995 37.3983 22.8938 36.6903 22.6004 36.0918L20.8046 36.9722ZM20.9905 38.14V38.428H22.9905V38.14H20.9905ZM21.9905 37.428H21.0305V39.428H21.9905V37.428ZM27.9499 41.5L26.9508 41.543L26.992 42.5H27.9499V41.5ZM27.9019 40.384H26.9019V40.4055L26.9028 40.427L27.9019 40.384ZM27.9019 33.1V32.1H26.9019V33.1H27.9019ZM28.8619 33.1H29.8619V32.1H28.8619V33.1ZM28.8619 41.5V42.5H29.8619V41.5H28.8619ZM24.4579 41.248L25.0012 40.4084L25.0012 40.4084L24.4579 41.248ZM23.4979 40.144L22.5917 40.5669L22.596 40.576L22.6005 40.5851L23.4979 40.144ZM23.4979 36.856L22.6004 36.4148L22.5945 36.4273L23.4979 36.856ZM24.4579 35.752L23.9147 34.9124L23.9147 34.9124L24.4579 35.752ZM27.1939 35.752L26.6193 36.5705L26.6274 36.576L27.1939 35.752ZM28.0819 36.856L28.997 36.4527L28.997 36.4527L28.0819 36.856ZM28.0819 40.144L28.997 40.5473L28.9995 40.5416L28.0819 40.144ZM27.1939 41.248L26.6274 40.4239L26.6193 40.4296L27.1939 41.248ZM27.0259 40.48L26.4492 39.663L26.4492 39.663L27.0259 40.48ZM27.6619 39.676L26.7552 39.2543L26.7511 39.263L26.7472 39.2718L27.6619 39.676ZM27.6619 37.324L26.7472 37.7282L26.7511 37.737L26.7552 37.7457L27.6619 37.324ZM27.0259 36.52L26.4492 37.337L26.4492 37.337L27.0259 36.52ZM25.0699 36.52L24.5257 35.681L24.5152 35.6879L25.0699 36.52ZM24.3859 39.676L25.2845 39.2372L25.2845 39.2372L24.3859 39.676ZM25.0819 40.48L24.5377 41.319L24.5377 41.319L25.0819 40.48ZM28.949 41.457L28.901 40.341L26.9028 40.427L26.9508 41.543L28.949 41.457ZM28.9019 40.384V33.1H26.9019V40.384H28.9019ZM27.9019 34.1H28.8619V32.1H27.9019V34.1ZM27.8619 33.1V41.5H29.8619V33.1H27.8619ZM28.8619 40.5H27.9499V42.5H28.8619V40.5ZM25.8739 40.644C25.5101 40.644 25.2309 40.5571 25.0012 40.4084L23.9147 42.0876C24.501 42.4669 25.1658 42.644 25.8739 42.644V40.644ZM25.0012 40.4084C24.7576 40.2508 24.5543 40.0263 24.3954 39.7029L22.6005 40.5851C22.9055 41.2057 23.3423 41.7172 23.9147 42.0876L25.0012 40.4084ZM24.4041 39.7211C24.2512 39.3934 24.1619 38.9936 24.1619 38.5H22.1619C22.1619 39.2384 22.2967 39.9346 22.5917 40.5669L24.4041 39.7211ZM24.1619 38.5C24.1619 37.9958 24.2521 37.5992 24.4013 37.2847L22.5945 36.4273C22.2957 37.0568 22.1619 37.7562 22.1619 38.5H24.1619ZM24.3954 37.2971C24.5543 36.9737 24.7576 36.7492 25.0012 36.5916L23.9147 34.9124C23.3423 35.2828 22.9055 35.7943 22.6005 36.4149L24.3954 37.2971ZM25.0012 36.5916C25.2309 36.4429 25.5101 36.356 25.8739 36.356V34.356C25.1658 34.356 24.501 34.5331 23.9147 34.9124L25.0012 36.5916ZM25.8739 36.356C26.1932 36.356 26.4279 36.4361 26.6193 36.5704L27.7686 34.9336C27.2079 34.5399 26.5627 34.356 25.8739 34.356V36.356ZM26.6274 36.576C26.8424 36.7238 27.0255 36.9384 27.1668 37.2593L28.997 36.4527C28.7224 35.8296 28.3135 35.3082 27.7605 34.928L26.6274 36.576ZM27.1668 37.2593C27.3084 37.5805 27.3939 37.9863 27.3939 38.5H29.3939C29.3939 37.7657 29.2715 37.0755 28.997 36.4527L27.1668 37.2593ZM27.3939 38.5C27.3939 39.0032 27.3092 39.4122 27.1644 39.7464L28.9995 40.5416C29.2706 39.9158 29.3939 39.2288 29.3939 38.5H27.3939ZM27.1668 39.7407C27.0255 40.0616 26.8424 40.2762 26.6274 40.424L27.7605 42.072C28.3135 41.6918 28.7224 41.1704 28.997 40.5473L27.1668 39.7407ZM26.6193 40.4296C26.4279 40.5639 26.1932 40.644 25.8739 40.644V42.644C26.5627 42.644 27.2079 42.4601 27.7686 42.0664L26.6193 40.4296ZM26.0899 41.768C26.6359 41.768 27.1519 41.6151 27.6026 41.297L26.4492 39.663C26.3559 39.7289 26.2479 39.768 26.0899 39.768V41.768ZM27.6026 41.297C28.041 40.9875 28.3611 40.5679 28.5766 40.0802L26.7472 39.2718C26.6587 39.4721 26.5548 39.5885 26.4492 39.663L27.6026 41.297ZM28.5686 40.0977C28.7992 39.6021 28.9019 39.0625 28.9019 38.5H26.9019C26.9019 38.8175 26.8447 39.0619 26.7552 39.2543L28.5686 40.0977ZM28.9019 38.5C28.9019 37.9375 28.7992 37.3979 28.5686 36.9023L26.7552 37.7457C26.8447 37.9381 26.9019 38.1825 26.9019 38.5H28.9019ZM28.5766 36.9198C28.3611 36.4321 28.041 36.0125 27.6026 35.703L26.4492 37.337C26.5548 37.4115 26.6587 37.5279 26.7472 37.7282L28.5766 36.9198ZM27.6026 35.703C27.148 35.3821 26.6268 35.232 26.0779 35.232V37.232C26.2491 37.232 26.3598 37.2739 26.4492 37.337L27.6026 35.703ZM26.0779 35.232C25.5221 35.232 24.9946 35.3769 24.5257 35.681L25.6141 37.359C25.7373 37.2791 25.8818 37.232 26.0779 37.232V35.232ZM24.5152 35.6879C24.0645 35.9884 23.7247 36.3993 23.4874 36.8852L25.2845 37.7628C25.3832 37.5607 25.4993 37.4356 25.6246 37.3521L24.5152 35.6879ZM23.4874 36.8852C23.2433 37.3849 23.1339 37.9306 23.1339 38.5H25.1339C25.1339 38.1894 25.1925 37.9511 25.2845 37.7628L23.4874 36.8852ZM23.1339 38.5C23.1339 39.0694 23.2433 39.6151 23.4874 40.1148L25.2845 39.2372C25.1925 39.0489 25.1339 38.8106 25.1339 38.5H23.1339ZM23.4874 40.1148C23.728 40.6075 24.0766 41.0199 24.5377 41.319L25.6261 39.641C25.4952 39.5561 25.3799 39.4325 25.2845 39.2372L23.4874 40.1148ZM24.5377 41.319C25.0066 41.6231 25.5341 41.768 26.0899 41.768V39.768C25.8938 39.768 25.7493 39.7209 25.6261 39.641L24.5377 41.319ZM34.2372 41.5L33.2384 41.5487L33.2848 42.5H34.2372V41.5ZM34.1892 40.516H33.1892V40.5404L33.1904 40.5647L34.1892 40.516ZM34.0332 37.168L33.0845 37.4842L33.087 37.4917L34.0332 37.168ZM31.8132 36.424L32.2963 37.2996L32.3062 37.294L31.8132 36.424ZM31.2372 37.048L30.8747 37.98L31.7055 38.3031L32.1216 37.5148L31.2372 37.048ZM30.3732 36.712L29.4943 36.2349L28.9527 37.2326L30.0107 37.644L30.3732 36.712ZM30.9252 35.992L31.6046 36.7258L31.6118 36.7191L31.6188 36.7123L30.9252 35.992ZM31.6812 35.524L32.0208 36.4646L32.0323 36.4604L32.0436 36.456L31.6812 35.524ZM34.0452 35.692L33.5169 36.5411L33.5278 36.5479L33.539 36.5544L34.0452 35.692ZM34.8732 36.664L33.9531 37.0559L33.9558 37.0621L34.8732 36.664ZM35.1372 38.248L34.1372 38.2353L34.1372 38.2443L35.1372 38.248ZM35.1252 41.5V42.5H36.1215L36.1252 41.5037L35.1252 41.5ZM30.7812 41.164L30.1394 41.9309L30.1479 41.938L30.1565 41.9449L30.7812 41.164ZM30.7932 38.416L31.4179 39.1969L31.4197 39.1954L30.7932 38.416ZM34.2132 37.924H35.2132V36.924H34.2132V37.924ZM34.2132 38.728V39.728H35.2132V38.728H34.2132ZM31.5132 39.004L30.9047 38.2104L30.8982 38.2154L30.8918 38.2205L31.5132 39.004ZM31.5132 40.54L30.8918 41.3235L30.9002 41.3302L30.9088 41.3367L31.5132 40.54ZM33.3852 40.588L33.8754 41.4596L33.8856 41.4538L33.8957 41.4479L33.3852 40.588ZM33.9732 39.952L33.0838 39.4946L33.0787 39.5048L33.9732 39.952ZM34.1892 38.968V37.968H33.1892V38.968H34.1892ZM34.5972 38.968H35.5972V37.968H34.5972V38.968ZM34.0452 40.924L34.8388 41.5325L34.8436 41.5261L34.0452 40.924ZM35.236 41.4513L35.188 40.4673L33.1904 40.5647L33.2384 41.5487L35.236 41.4513ZM35.1892 40.516V38.332H33.1892V40.516H35.1892ZM35.1892 38.332C35.1892 37.7966 35.1315 37.2891 34.9793 36.8443L33.087 37.4917C33.1429 37.6549 33.1892 37.9234 33.1892 38.332H35.1892ZM34.9819 36.8518C34.8244 36.3793 34.5498 35.9516 34.1224 35.6463L32.9599 37.2737C32.9805 37.2884 33.034 37.3327 33.0845 37.4842L34.9819 36.8518ZM34.1224 35.6463C33.6834 35.3327 33.1698 35.22 32.6652 35.22V37.22C32.8805 37.22 32.9509 37.2673 32.9599 37.2737L34.1224 35.6463ZM32.6652 35.22C32.1971 35.22 31.7366 35.318 31.3202 35.554L32.3062 37.294C32.3697 37.258 32.4772 37.22 32.6652 37.22V35.22ZM31.3301 35.5484C30.8918 35.7902 30.5749 36.1605 30.3528 36.5812L32.1216 37.5148C32.2035 37.3595 32.2705 37.3138 32.2962 37.2996L31.3301 35.5484ZM31.5996 36.116L30.7356 35.78L30.0107 37.644L30.8747 37.98L31.5996 36.116ZM31.252 37.1891C31.3563 36.9971 31.4749 36.8458 31.6046 36.7258L30.2458 35.2582C29.9434 35.5382 29.6941 35.8669 29.4943 36.2349L31.252 37.1891ZM31.6188 36.7123C31.7314 36.6039 31.8621 36.5219 32.0208 36.4646L31.3415 34.5834C30.9242 34.7341 30.5509 34.9641 30.2315 35.2717L31.6188 36.7123ZM32.0436 36.456C32.1963 36.3966 32.398 36.356 32.6652 36.356V34.356C32.1963 34.356 31.742 34.4274 31.3187 34.592L32.0436 36.456ZM32.6652 36.356C33.0969 36.356 33.3587 36.4426 33.5169 36.5411L34.5735 34.8429C34.0117 34.4934 33.3534 34.356 32.6652 34.356V36.356ZM33.539 36.5544C33.7035 36.651 33.8442 36.8001 33.9531 37.0559L35.7932 36.2721C35.5341 35.6639 35.1228 35.165 34.5514 34.8296L33.539 36.5544ZM33.9558 37.0621C34.067 37.3182 34.1441 37.6957 34.1373 38.2353L36.1371 38.2607C36.1463 37.5363 36.0474 36.8578 35.7905 36.2659L33.9558 37.0621ZM34.1372 38.2443L34.1252 41.4963L36.1252 41.5037L36.1372 38.2517L34.1372 38.2443ZM35.1252 40.5H34.2372V42.5H35.1252V40.5ZM32.4372 40.644C31.8761 40.644 31.5724 40.5164 31.4059 40.3831L30.1565 41.9449C30.7899 42.4516 31.5903 42.644 32.4372 42.644V40.644ZM31.4229 40.3971C31.2885 40.2846 31.1932 40.1302 31.1932 39.808H29.1932C29.1932 40.6378 29.4899 41.3874 30.1394 41.9309L31.4229 40.3971ZM31.1932 39.808C31.1932 39.4405 31.3005 39.2908 31.4179 39.1969L30.1685 37.6351C29.4859 38.1812 29.1932 38.9595 29.1932 39.808H31.1932ZM31.4197 39.1954C31.592 39.0569 31.9092 38.924 32.4972 38.924V36.924C31.6291 36.924 30.8103 37.1191 30.1666 37.6366L31.4197 39.1954ZM32.4972 38.924H34.2132V36.924H32.4972V38.924ZM33.2132 37.924V38.728H35.2132V37.924H33.2132ZM34.2132 37.728H32.7132V39.728H34.2132V37.728ZM32.7132 37.728C32.0962 37.728 31.4152 37.8191 30.9047 38.2104L32.1216 39.7976C32.095 39.818 32.1098 39.7963 32.2173 39.7716C32.3227 39.7473 32.4833 39.728 32.7132 39.728V37.728ZM30.8918 38.2205C30.3803 38.6262 30.1652 39.2022 30.1652 39.796H32.1652C32.1652 39.766 32.1677 39.7482 32.1692 39.7404C32.1706 39.7329 32.1711 39.7346 32.1677 39.7423C32.1642 39.7503 32.1584 39.7604 32.1507 39.7705C32.1429 39.7804 32.1365 39.7859 32.1346 39.7875L30.8918 38.2205ZM30.1652 39.796C30.1652 40.3943 30.4061 40.9383 30.8918 41.3235L32.1346 39.7565C32.1308 39.7535 32.1337 39.7552 32.1397 39.7627C32.1459 39.7704 32.1525 39.7806 32.158 39.7923C32.1634 39.8039 32.1655 39.8123 32.1661 39.8152C32.1666 39.8176 32.1652 39.812 32.1652 39.796H30.1652ZM30.9088 41.3367C31.3752 41.6905 31.9416 41.804 32.4852 41.804V39.804C32.3455 39.804 32.2513 39.789 32.1923 39.773C32.1635 39.7651 32.1446 39.7575 32.1333 39.7522C32.1223 39.7469 32.1179 39.7436 32.1176 39.7433L30.9088 41.3367ZM32.4852 41.804C32.9713 41.804 33.4459 41.7012 33.8754 41.4596L32.8949 39.7164C32.8124 39.7628 32.687 39.804 32.4852 39.804V41.804ZM33.8957 41.4479C34.3203 41.1958 34.6478 40.8388 34.8676 40.3992L33.0787 39.5048C33.0266 39.6092 32.9621 39.6762 32.8746 39.7281L33.8957 41.4479ZM34.8625 40.4093C35.0921 39.9629 35.1892 39.4724 35.1892 38.968H33.1892C33.1892 39.2156 33.1423 39.3811 33.0839 39.4947L34.8625 40.4093ZM34.1892 39.968H34.5972V37.968H34.1892V39.968ZM33.5972 38.968C33.5972 39.639 33.4462 40.0574 33.2467 40.3219L34.8436 41.5261C35.3801 40.8146 35.5972 39.929 35.5972 38.968H33.5972ZM33.2516 40.3156C33.1053 40.5063 32.8878 40.644 32.4372 40.644V42.644C33.3946 42.644 34.249 42.3017 34.8388 41.5324L33.2516 40.3156ZM40.3544 41.5L39.3555 41.5487L39.402 42.5H40.3544V41.5ZM40.3064 40.516H39.3064V40.5404L39.3075 40.5647L40.3064 40.516ZM40.1504 37.168L39.2016 37.4842L39.2042 37.4917L40.1504 37.168ZM37.9304 36.424L38.4135 37.2996L38.4234 37.294L37.9304 36.424ZM37.3544 37.048L36.9919 37.98L37.8227 38.3031L38.2387 37.5148L37.3544 37.048ZM36.4904 36.712L35.6115 36.2349L35.0699 37.2326L36.1279 37.644L36.4904 36.712ZM37.0424 35.992L37.7218 36.7258L37.729 36.7191L37.736 36.7123L37.0424 35.992ZM37.7984 35.524L38.138 36.4646L38.1495 36.4604L38.1608 36.456L37.7984 35.524ZM40.1624 35.692L39.6341 36.5411L39.645 36.5479L39.6562 36.5544L40.1624 35.692ZM40.9904 36.664L40.0703 37.0559L40.073 37.0621L40.9904 36.664ZM41.2544 38.248L40.2544 38.2353L40.2544 38.2443L41.2544 38.248ZM41.2424 41.5V42.5H42.2387L42.2424 41.5037L41.2424 41.5ZM36.8984 41.164L36.2566 41.9309L36.2651 41.938L36.2737 41.9449L36.8984 41.164ZM36.9104 38.416L37.5351 39.1969L37.5369 39.1954L36.9104 38.416ZM40.3304 37.924H41.3304V36.924H40.3304V37.924ZM40.3304 38.728V39.728H41.3304V38.728H40.3304ZM37.6304 39.004L37.0219 38.2104L37.0154 38.2154L37.009 38.2205L37.6304 39.004ZM37.6304 40.54L37.009 41.3235L37.0174 41.3302L37.026 41.3367L37.6304 40.54ZM39.5024 40.588L39.9926 41.4596L40.0028 41.4538L40.0129 41.4479L39.5024 40.588ZM40.0904 39.952L39.201 39.4946L39.1959 39.5048L40.0904 39.952ZM40.3064 38.968V37.968H39.3064V38.968H40.3064ZM40.7144 38.968H41.7144V37.968H40.7144V38.968ZM40.1624 40.924L40.956 41.5325L40.9608 41.5261L40.1624 40.924ZM41.3532 41.4513L41.3052 40.4673L39.3075 40.5647L39.3555 41.5487L41.3532 41.4513ZM41.3064 40.516V38.332H39.3064V40.516H41.3064ZM41.3064 38.332C41.3064 37.7966 41.2487 37.2891 41.0965 36.8443L39.2042 37.4917C39.26 37.6549 39.3064 37.9234 39.3064 38.332H41.3064ZM41.099 36.8518C40.9416 36.3793 40.667 35.9516 40.2396 35.6463L39.0771 37.2737C39.0977 37.2884 39.1512 37.3327 39.2017 37.4842L41.099 36.8518ZM40.2396 35.6463C39.8006 35.3327 39.287 35.22 38.7824 35.22V37.22C38.9977 37.22 39.0681 37.2673 39.0771 37.2737L40.2396 35.6463ZM38.7824 35.22C38.3143 35.22 37.8538 35.318 37.4373 35.554L38.4234 37.294C38.4869 37.258 38.5944 37.22 38.7824 37.22V35.22ZM37.4473 35.5484C37.009 35.7902 36.692 36.1605 36.47 36.5812L38.2387 37.5148C38.3207 37.3595 38.3877 37.3138 38.4134 37.2996L37.4473 35.5484ZM37.7168 36.116L36.8528 35.78L36.1279 37.644L36.9919 37.98L37.7168 36.116ZM37.3692 37.1891C37.4735 36.9971 37.5921 36.8458 37.7218 36.7258L36.363 35.2582C36.0606 35.5382 35.8113 35.8669 35.6115 36.2349L37.3692 37.1891ZM37.736 36.7123C37.8486 36.6039 37.9793 36.5219 38.138 36.4646L37.4587 34.5834C37.0414 34.7341 36.6681 34.9641 36.3487 35.2717L37.736 36.7123ZM38.1608 36.456C38.3135 36.3966 38.5152 36.356 38.7824 36.356V34.356C38.3135 34.356 37.8592 34.4274 37.4359 34.592L38.1608 36.456ZM38.7824 36.356C39.2141 36.356 39.4759 36.4426 39.6341 36.5411L40.6907 34.8429C40.1289 34.4934 39.4706 34.356 38.7824 34.356V36.356ZM39.6562 36.5544C39.8207 36.651 39.9614 36.8001 40.0703 37.0559L41.9104 36.2721C41.6513 35.6639 41.24 35.165 40.6686 34.8296L39.6562 36.5544ZM40.073 37.0621C40.1842 37.3182 40.2613 37.6957 40.2544 38.2353L42.2543 38.2607C42.2634 37.5363 42.1646 36.8578 41.9077 36.2659L40.073 37.0621ZM40.2544 38.2443L40.2424 41.4963L42.2424 41.5037L42.2544 38.2517L40.2544 38.2443ZM41.2424 40.5H40.3544V42.5H41.2424V40.5ZM38.5544 40.644C37.9933 40.644 37.6896 40.5164 37.5231 40.3831L36.2737 41.9449C36.9071 42.4516 37.7075 42.644 38.5544 42.644V40.644ZM37.5401 40.3971C37.4057 40.2846 37.3104 40.1302 37.3104 39.808H35.3104C35.3104 40.6378 35.607 41.3874 36.2566 41.9309L37.5401 40.3971ZM37.3104 39.808C37.3104 39.4405 37.4177 39.2908 37.5351 39.1969L36.2857 37.6351C35.6031 38.1812 35.3104 38.9595 35.3104 39.808H37.3104ZM37.5369 39.1954C37.7092 39.0569 38.0264 38.924 38.6144 38.924V36.924C37.7463 36.924 36.9275 37.1191 36.2838 37.6366L37.5369 39.1954ZM38.6144 38.924H40.3304V36.924H38.6144V38.924ZM39.3304 37.924V38.728H41.3304V37.924H39.3304ZM40.3304 37.728H38.8304V39.728H40.3304V37.728ZM38.8304 37.728C38.2134 37.728 37.5324 37.8191 37.0219 38.2104L38.2388 39.7976C38.2122 39.818 38.227 39.7963 38.3345 39.7716C38.4399 39.7473 38.6005 39.728 38.8304 39.728V37.728ZM37.009 38.2205C36.4974 38.6262 36.2824 39.2022 36.2824 39.796H38.2824C38.2824 39.766 38.2849 39.7482 38.2864 39.7404C38.2878 39.7329 38.2883 39.7346 38.2849 39.7423C38.2813 39.7503 38.2756 39.7604 38.2678 39.7705C38.2601 39.7804 38.2537 39.7859 38.2518 39.7875L37.009 38.2205ZM36.2824 39.796C36.2824 40.3943 36.5233 40.9383 37.009 41.3235L38.2518 39.7565C38.2479 39.7535 38.2508 39.7552 38.2569 39.7627C38.2631 39.7704 38.2697 39.7806 38.2752 39.7923C38.2806 39.8039 38.2827 39.8123 38.2833 39.8152C38.2838 39.8176 38.2824 39.812 38.2824 39.796H36.2824ZM37.026 41.3367C37.4924 41.6905 38.0588 41.804 38.6024 41.804V39.804C38.4627 39.804 38.3685 39.789 38.3095 39.773C38.2807 39.7651 38.2618 39.7575 38.2505 39.7522C38.2395 39.7469 38.2351 39.7436 38.2347 39.7433L37.026 41.3367ZM38.6024 41.804C39.0885 41.804 39.5631 41.7012 39.9926 41.4596L39.0121 39.7164C38.9296 39.7628 38.8042 39.804 38.6024 39.804V41.804ZM40.0129 41.4479C40.4375 41.1958 40.765 40.8388 40.9848 40.3992L39.1959 39.5048C39.1437 39.6092 39.0792 39.6762 38.9918 39.7281L40.0129 41.4479ZM40.9796 40.4093C41.2092 39.9629 41.3064 39.4724 41.3064 38.968H39.3064C39.3064 39.2156 39.2595 39.3811 39.2011 39.4947L40.9796 40.4093ZM40.3064 39.968H40.7144V37.968H40.3064V39.968ZM39.7144 38.968C39.7144 39.639 39.5634 40.0574 39.3639 40.3219L40.9608 41.5261C41.4973 40.8146 41.7144 39.929 41.7144 38.968H39.7144ZM39.3688 40.3156C39.2225 40.5063 39.005 40.644 38.5544 40.644V42.644C39.5117 42.644 40.3662 42.3017 40.956 41.5324L39.3688 40.3156ZM44.1195 43.924L44.3621 42.9539L44.3533 42.9517L44.3444 42.9496L44.1195 43.924ZM43.3155 43.672L43.7095 42.7529L43.7012 42.7493L43.6928 42.7459L43.3155 43.672ZM42.8475 43.444L41.9396 43.0249L41.5811 43.8016L42.2928 44.2761L42.8475 43.444ZM43.2075 42.664L43.6816 41.7835L42.7453 41.2793L42.2996 42.2449L43.2075 42.664ZM43.6515 42.868L44.0682 41.9589L44.0523 41.9516L44.0362 41.9449L43.6515 42.868ZM44.3235 43.084L44.5591 42.1121L44.5482 42.1095L44.5372 42.1071L44.3235 43.084ZM46.1955 42.94L45.7576 42.041L45.7436 42.0478L45.7298 42.0551L46.1955 42.94ZM46.9155 42.208L46.0344 41.7352L46.0276 41.7479L46.0211 41.7608L46.9155 42.208ZM47.1795 35.5V34.5H46.1795V35.5H47.1795ZM48.1395 35.5H49.1395V34.5H48.1395V35.5ZM47.7555 42.652L46.88 42.1689L46.88 42.1689L47.7555 42.652ZM43.7235 41.068L44.255 40.2209L43.7235 41.068ZM42.7635 40L41.863 40.4347L41.8675 40.4442L41.8723 40.4535L42.7635 40ZM42.7635 36.82L41.8691 36.3728L41.866 36.3791L42.7635 36.82ZM46.4595 35.74L45.8968 36.5666L45.8968 36.5666L46.4595 35.74ZM47.3355 36.82L46.423 37.2291L46.4273 37.2386L46.4318 37.2481L47.3355 36.82ZM47.3355 40L46.4318 39.5719L46.4287 39.5784L46.4257 39.585L47.3355 40ZM46.4595 41.068L45.8968 40.2414L45.8968 40.2414L46.4595 41.068ZM46.3035 40.336L46.8802 41.153L46.8802 41.153L46.3035 40.336ZM46.9395 39.556L47.8469 39.9765L47.8507 39.9682L46.9395 39.556ZM46.9275 37.264L46.0164 37.6762L46.0224 37.6894L46.0288 37.7024L46.9275 37.264ZM46.2915 36.484L45.7034 37.2927L45.7171 37.3027L45.7312 37.3123L46.2915 36.484ZM44.3475 36.484L44.8859 37.3267L44.8917 37.323L44.3475 36.484ZM43.6635 37.264L42.7691 36.8168L42.7648 36.8256L43.6635 37.264ZM43.6755 39.556L42.7811 40.0032L42.7855 40.0119L43.6755 39.556ZM44.3595 40.336L43.8048 41.1681L43.8154 41.175L44.3595 40.336ZM45.1755 43.044C44.8603 43.044 44.5911 43.0111 44.3621 42.9539L43.877 44.8941C44.288 44.9969 44.7228 45.044 45.1755 45.044V43.044ZM44.3444 42.9496C44.0734 42.8871 43.865 42.8195 43.7095 42.7529L42.9216 44.5911C43.2141 44.7165 43.5417 44.8169 43.8947 44.8984L44.3444 42.9496ZM43.6928 42.7459C43.5989 42.7076 43.5272 42.6757 43.4745 42.65C43.4189 42.6229 43.3993 42.61 43.4022 42.6119L42.2928 44.2761C42.4763 44.3983 42.7096 44.5049 42.9382 44.5981L43.6928 42.7459ZM43.7555 43.8631L44.1155 43.0831L42.2996 42.2449L41.9396 43.0249L43.7555 43.8631ZM42.7334 43.5445C42.8804 43.6236 43.0636 43.7064 43.2669 43.7911L44.0362 41.9449C43.8555 41.8696 43.7427 41.8164 43.6816 41.7835L42.7334 43.5445ZM43.2349 43.7771C43.5053 43.901 43.7999 43.9931 44.1099 44.0609L44.5372 42.1071C44.3352 42.0629 44.1818 42.011 44.0682 41.9589L43.2349 43.7771ZM44.0879 44.0559C44.4356 44.1401 44.7952 44.18 45.1635 44.18V42.18C44.9399 42.18 44.7395 42.1559 44.5591 42.1121L44.0879 44.0559ZM45.1635 44.18C45.6904 44.18 46.1974 44.069 46.6613 43.8249L45.7298 42.0551C45.5856 42.131 45.4047 42.18 45.1635 42.18V44.18ZM46.6335 43.839C47.1599 43.5826 47.5522 43.1707 47.81 42.6552L46.0211 41.7608C45.9428 41.9173 45.8552 41.9934 45.7576 42.041L46.6335 43.839ZM47.7967 42.6808C48.0755 42.1612 48.1795 41.5591 48.1795 40.936H46.1795C46.1795 41.3529 46.1076 41.5988 46.0344 41.7352L47.7967 42.6808ZM48.1795 40.936V35.5H46.1795V40.936H48.1795ZM47.1795 36.5H48.1395V34.5H47.1795V36.5ZM47.1395 35.5V40.924H49.1395V35.5H47.1395ZM47.1395 40.924C47.1395 41.492 47.0336 41.8905 46.88 42.1689L48.6311 43.1351C48.9895 42.4855 49.1395 41.732 49.1395 40.924H47.1395ZM46.88 42.1689C46.7144 42.469 46.503 42.6716 46.2397 42.808L47.1594 44.584C47.7921 44.2564 48.2847 43.763 48.6311 43.1351L46.88 42.1689ZM46.2397 42.808C45.9509 42.9576 45.6039 43.044 45.1755 43.044V45.044C45.8832 45.044 46.5522 44.8984 47.1594 44.584L46.2397 42.808ZM45.1395 40.452C44.7697 40.452 44.4862 40.366 44.255 40.2209L43.1921 41.9151C43.7769 42.282 44.4374 42.452 45.1395 42.452V40.452ZM44.255 40.2209C44.01 40.0672 43.81 39.8516 43.6548 39.5465L41.8723 40.4535C42.181 41.0604 42.6211 41.5568 43.1921 41.9151L44.255 40.2209ZM43.6641 39.5653C43.5147 39.2557 43.4275 38.8799 43.4275 38.416H41.4275C41.4275 39.1361 41.5644 39.8163 41.863 40.4347L43.6641 39.5653ZM43.4275 38.416C43.4275 37.9311 43.5165 37.5553 43.6611 37.2609L41.866 36.3791C41.5626 36.9967 41.4275 37.6849 41.4275 38.416H43.4275ZM43.658 37.2672C43.8145 36.9541 44.0144 36.7381 44.255 36.5871L43.1921 34.8929C42.6167 35.2539 42.1766 35.7579 41.8691 36.3728L43.658 37.2672ZM44.255 36.5871C44.4862 36.442 44.7697 36.356 45.1395 36.356V34.356C44.4374 34.356 43.7769 34.526 43.1921 34.8929L44.255 36.5871ZM45.1395 36.356C45.4654 36.356 45.7044 36.4357 45.8968 36.5666L47.0223 34.9134C46.4627 34.5323 45.8217 34.356 45.1395 34.356V36.356ZM45.8968 36.5666C46.1023 36.7065 46.2816 36.9134 46.423 37.2291L48.2481 36.4109C47.9735 35.7986 47.5688 35.2855 47.0223 34.9134L45.8968 36.5666ZM46.4318 37.2481C46.5728 37.5457 46.6595 37.9262 46.6595 38.416H48.6595C48.6595 37.6898 48.5303 37.0063 48.2393 36.3919L46.4318 37.2481ZM46.6595 38.416C46.6595 38.8956 46.5736 39.2727 46.4318 39.5719L48.2393 40.4281C48.5295 39.8153 48.6595 39.1364 48.6595 38.416H46.6595ZM46.4257 39.585C46.2856 39.8921 46.1065 40.0986 45.8968 40.2414L47.0223 41.8946C47.5646 41.5254 47.9695 41.0199 48.2454 40.415L46.4257 39.585ZM45.8968 40.2414C45.7044 40.3723 45.4654 40.452 45.1395 40.452V42.452C45.8217 42.452 46.4627 42.2757 47.0223 41.8946L45.8968 40.2414ZM45.3675 41.624C45.9135 41.624 46.4296 41.4711 46.8802 41.153L45.7269 39.519C45.6335 39.5849 45.5256 39.624 45.3675 39.624V41.624ZM46.8802 41.153C47.3074 40.8514 47.6278 40.4492 47.8469 39.9765L46.0322 39.1355C45.9473 39.3188 45.8437 39.4366 45.7269 39.519L46.8802 41.153ZM47.8507 39.9682C48.0714 39.4801 48.1675 38.9471 48.1675 38.392H46.1675C46.1675 38.7169 46.1116 38.9599 46.0284 39.1438L47.8507 39.9682ZM48.1675 38.392C48.1675 37.8406 48.0629 37.3106 47.8263 36.8256L46.0288 37.7024C46.1122 37.8734 46.1675 38.0954 46.1675 38.392H48.1675ZM47.8387 36.8518C47.6201 36.3686 47.2953 35.9557 46.8519 35.6557L45.7312 37.3123C45.8318 37.3803 45.931 37.4874 46.0164 37.6762L47.8387 36.8518ZM46.8797 35.6753C46.4272 35.3462 45.9041 35.196 45.3555 35.196V37.196C45.527 37.196 45.6279 37.2378 45.7034 37.2927L46.8797 35.6753ZM45.3555 35.196C44.7997 35.196 44.2722 35.3409 43.8034 35.645L44.8917 37.323C45.0149 37.2431 45.1594 37.196 45.3555 37.196V35.196ZM43.8092 35.6413C43.3541 35.932 43.0096 36.3357 42.7691 36.8168L44.558 37.7112C44.6534 37.5203 44.765 37.404 44.8859 37.3267L43.8092 35.6413ZM42.7648 36.8256C42.5282 37.3106 42.4235 37.8406 42.4235 38.392H44.4235C44.4235 38.0954 44.4789 37.8734 44.5623 37.7024L42.7648 36.8256ZM42.4235 38.392C42.4235 38.9607 42.5327 39.5064 42.7811 40.0032L44.57 39.1088C44.4824 38.9336 44.4235 38.7033 44.4235 38.392H42.4235ZM42.7855 40.0119C43.0261 40.4817 43.3656 40.8752 43.8048 41.1681L44.9142 39.5039C44.7775 39.4128 44.661 39.2863 44.5656 39.1001L42.7855 40.0119ZM43.8154 41.175C44.2842 41.4791 44.8117 41.624 45.3675 41.624V39.624C45.1714 39.624 45.0269 39.5769 44.9037 39.497L43.8154 41.175Z" fill="#060606" mask="url(#path-3-outside-1_39_1926)"/>
</svg>
